<svg width="45" height="45" viewBox="0 0 45 45" fill="none" xmlns="http://www.w3.org/2000/svg">
<circle cx="22.5" cy="22.5" r="22.5" fill="#F5F9FD"/>
<path d="M20.4248 17.3885C20.6271 17.3885 20.791 17.2241 20.791 17.0214C20.791 16.8186 20.6271 16.6543 20.4248 16.6543C20.2226 16.6543 20.0586 16.8186 20.0586 17.0214C20.0586 17.2241 20.2226 17.3885 20.4248 17.3885Z" fill="#144FA3"/>
<path d="M19.0413 17.3885C19.2435 17.3885 19.4075 17.2241 19.4075 17.0214C19.4075 16.8186 19.2435 16.6543 19.0413 16.6543C18.839 16.6543 18.675 16.8186 18.675 17.0214C18.675 17.2241 18.839 17.3885 19.0413 17.3885Z" fill="#144FA3"/>
<path d="M14.658 17.3885C14.8602 17.3885 15.0242 17.2241 15.0242 17.0214C15.0242 16.8186 14.8602 16.6543 14.658 16.6543C14.4557 16.6543 14.2917 16.8186 14.2917 17.0214C14.2917 17.2241 14.4557 17.3885 14.658 17.3885Z" fill="#144FA3"/>
<path d="M13.2747 17.3885C13.4769 17.3885 13.6409 17.2241 13.6409 17.0214C13.6409 16.8186 13.4769 16.6543 13.2747 16.6543C13.0724 16.6543 12.9084 16.8186 12.9084 17.0214C12.9084 17.2241 13.0724 17.3885 13.2747 17.3885Z" fill="#144FA3"/>
<path d="M24.792 17.3885C24.9942 17.3885 25.1582 17.2241 25.1582 17.0214C25.1582 16.8186 24.9942 16.6543 24.792 16.6543C24.5897 16.6543 24.4258 16.8186 24.4258 17.0214C24.4258 17.2241 24.5897 17.3885 24.792 17.3885Z" fill="#144FA3"/>
<path d="M26.1755 17.3885C26.3778 17.3885 26.5417 17.2241 26.5417 17.0214C26.5417 16.8186 26.3778 16.6543 26.1755 16.6543C25.9733 16.6543 25.8093 16.8186 25.8093 17.0214C25.8093 17.2241 25.9733 17.3885 26.1755 17.3885Z" fill="#144FA3"/>
<path d="M30.0685 15.8758H29.4826V13.8565C29.4826 13.3843 29.0992 13 28.6281 13H15.7567C15.5545 13 15.3905 13.1644 15.3905 13.3671C15.3905 13.5698 15.5545 13.7342 15.7567 13.7342H28.6281C28.6954 13.7342 28.7501 13.7891 28.7501 13.8565V20.1866C28.7501 20.2541 28.6954 20.309 28.6281 20.309H24.1399C23.9377 20.309 23.7737 20.4733 23.7737 20.676C23.7737 20.8788 23.9377 21.0431 24.1399 21.0431H28.6281C29.0992 21.0431 29.4826 20.6589 29.4826 20.1866V18.1761H30.0685C31.5224 18.1761 32.7052 19.3618 32.7052 20.8191C32.7052 22.2764 31.5224 23.462 30.0685 23.462L15.4563 23.4628C13.3949 23.4629 11.7177 25.1441 11.7175 27.2104C11.7175 28.2115 12.1063 29.1527 12.8125 29.8606C13.5186 30.5685 14.4575 30.9585 15.4562 30.9585L20.1905 30.9591V31.2805C20.1905 31.6772 20.5125 32 20.9083 32H22.976C23.5679 32 24.0711 31.6139 24.2492 31.0799H25.5146C25.7169 31.0799 25.8809 30.9155 25.8809 30.7128C25.8809 30.51 25.7169 30.3457 25.5146 30.3457H24.3184V29.2722H25.5146C25.7169 29.2722 25.8809 29.1078 25.8809 28.9051C25.8809 28.7024 25.7169 28.538 25.5146 28.538H24.2492C24.0711 28.004 23.5679 27.6179 22.976 27.6179H20.9083C20.5125 27.6179 20.1905 27.9406 20.1905 28.3373V28.6587H15.457C14.6604 28.6587 14.0123 28.0091 14.0123 27.2106C14.0123 26.4121 14.6604 25.7624 15.457 25.7624H30.0685C32.7878 25.7624 35.0001 23.5448 35.0001 20.819C35.0001 18.0934 32.7878 15.8758 30.0685 15.8758V15.8758ZM20.9229 28.3521H22.9759C23.3123 28.3521 23.5859 28.6264 23.5859 28.9636V30.6545C23.5859 30.9917 23.3123 31.266 22.9759 31.266H20.9229V28.3521ZM30.0685 25.0283H15.4569C14.2564 25.0283 13.2798 26.0073 13.2798 27.2107C13.2798 28.414 14.2564 29.393 15.4569 29.393H20.1905V30.225L15.4563 30.2245C14.6532 30.2244 13.8982 29.9109 13.3304 29.3416C12.7625 28.7724 12.4499 28.0155 12.45 27.2105C12.45 25.549 13.7987 24.1971 15.4563 24.197L30.0685 24.1963C30.9685 24.1963 31.8145 23.845 32.4508 23.2071C33.0872 22.5693 33.4376 21.7212 33.4376 20.8191C33.4376 18.957 31.9263 17.442 30.0685 17.442H29.4826V16.61H30.0685C32.3839 16.61 34.2677 18.4982 34.2677 20.8191C34.2677 23.14 32.3839 25.0283 30.0685 25.0283Z" fill="#144FA3"/>
<path d="M23.0412 20.676C23.0412 20.4733 22.8772 20.309 22.675 20.309H10.8545C10.7872 20.309 10.7324 20.2541 10.7324 20.1866V13.8565C10.7324 13.7891 10.7872 13.7342 10.8545 13.7342H14.2917C14.494 13.7342 14.658 13.5698 14.658 13.3671C14.658 13.1644 14.494 13 14.2917 13H10.8545C10.3833 13 10 13.3842 10 13.8565V20.1866C10 20.6589 10.3833 21.0431 10.8545 21.0431H22.675C22.8772 21.0431 23.0412 20.8788 23.0412 20.676Z" fill="#144FA3"/>
<path d="M22.2559 17.0221C22.2559 15.6322 21.1278 14.5015 19.7412 14.5015C18.3546 14.5015 17.2266 15.6322 17.2266 17.0221C17.2266 18.412 18.3546 19.5427 19.7412 19.5427C21.1278 19.5427 22.2559 18.412 22.2559 17.0221ZM17.959 17.0221C17.959 16.037 18.7585 15.2356 19.7412 15.2356C20.7239 15.2356 21.5234 16.037 21.5234 17.0221C21.5234 18.0071 20.7239 18.8085 19.7412 18.8085C18.7585 18.8085 17.959 18.0071 17.959 17.0221Z" fill="#144FA3"/>
<path d="M11.4597 17.0221C11.4597 18.412 12.5878 19.5427 13.9744 19.5427C15.3609 19.5427 16.489 18.412 16.489 17.0221C16.489 15.6322 15.3609 14.5015 13.9744 14.5015C12.5878 14.5015 11.4597 15.6322 11.4597 17.0221V17.0221ZM15.7566 17.0221C15.7566 18.0071 14.9571 18.8085 13.9744 18.8085C12.9917 18.8085 12.1921 18.0071 12.1921 17.0221C12.1921 16.037 12.9917 15.2356 13.9744 15.2356C14.9571 15.2356 15.7566 16.037 15.7566 17.0221Z" fill="#144FA3"/>
<path d="M25.4756 19.5427C26.8622 19.5427 27.9902 18.412 27.9902 17.0221C27.9902 15.6322 26.8622 14.5015 25.4756 14.5015C24.089 14.5015 22.9609 15.6322 22.9609 17.0221C22.9609 18.412 24.089 19.5427 25.4756 19.5427ZM25.4756 15.2356C26.4583 15.2356 27.2578 16.037 27.2578 17.0221C27.2578 18.0071 26.4583 18.8085 25.4756 18.8085C24.4929 18.8085 23.6934 18.0071 23.6934 17.0221C23.6934 16.037 24.4929 15.2356 25.4756 15.2356Z" fill="#144FA3"/>
</svg>
