<svg width="17" height="16" viewBox="0 0 17 16" fill="none" xmlns="http://www.w3.org/2000/svg">
<g opacity="0.5">
<path d="M16.6957 7.67283H13.776L15.6939 5.64591C15.8127 5.5203 15.8127 5.31671 15.6939 5.19114C15.575 5.06557 15.3824 5.06557 15.2636 5.19114L12.9155 7.67283H10.446L9.73495 6.37123L10.9613 4.12617L14.1834 3.21375C14.3457 3.16776 14.4421 2.99147 14.3985 2.81992C14.355 2.64836 14.1883 2.54651 14.0259 2.59253L11.3916 3.33855L12.8568 0.656456C12.9408 0.502669 12.8909 0.305995 12.7454 0.217204C12.5999 0.128413 12.4138 0.181109 12.3298 0.334895L10.87 3.00726L10.168 0.238427C10.1245 0.0669146 9.95782 -0.0348995 9.79539 0.0110434C9.63307 0.0570266 9.53673 0.233322 9.58024 0.404875L10.4397 3.79493L9.197 6.06985H7.79087L6.55649 3.81024L7.41984 0.404875C7.46334 0.233322 7.36701 0.0570266 7.20469 0.0110434C7.04253 -0.0349397 6.87557 0.0668744 6.83206 0.238427L6.1262 3.02258L4.66104 0.340482C4.57703 0.186656 4.39091 0.134 4.24544 0.222751C4.09993 0.311542 4.05007 0.508216 4.13408 0.662043L5.59391 3.33441L2.97409 2.59249C2.81192 2.54655 2.64496 2.64836 2.60146 2.81988C2.55795 2.99143 2.65428 3.16772 2.8166 3.21371L6.02416 4.12208L7.27794 6.41725L6.59204 7.67283H4.08449L1.7364 5.19114C1.61759 5.06557 1.42496 5.06557 1.30615 5.19114C1.1873 5.31671 1.1873 5.5203 1.30615 5.64591L3.22395 7.67283H0.304251C0.136228 7.67283 0 7.81681 0 7.99439C0 8.17197 0.136228 8.31595 0.304251 8.31595H3.23456L1.30615 10.3541C1.1873 10.4797 1.1873 10.6833 1.30615 10.8089C1.36555 10.8717 1.4434 10.9031 1.52129 10.9031C1.59918 10.9031 1.67703 10.8717 1.73643 10.8089L4.09514 8.31595H6.59208L7.28106 9.57715L6.0242 11.8779L2.81664 12.7863C2.65432 12.8323 2.55799 13.0086 2.60149 13.1801C2.63793 13.3238 2.76085 13.4186 2.89521 13.4186C2.92126 13.4186 2.94777 13.415 2.97413 13.4075L5.59395 12.6656L4.13412 15.338C4.05011 15.4918 4.09997 15.6884 4.24547 15.7773C4.29339 15.8065 4.34569 15.8204 4.39733 15.8204C4.50249 15.8204 4.60476 15.7627 4.66112 15.6595L6.12628 12.9775L6.83214 15.7616C6.86857 15.9053 6.99149 16 7.12585 16C7.1519 16 7.17841 15.9964 7.20477 15.989C7.36708 15.943 7.46342 15.7667 7.41991 15.5952L6.55656 12.1898L7.79707 9.91893H9.19095L10.4398 12.2051L9.58032 15.5951C9.53681 15.7667 9.63314 15.943 9.79546 15.9889C9.82182 15.9964 9.84832 16 9.87438 16C10.0087 16 10.1317 15.9052 10.1681 15.7616L10.8701 12.9927L12.3299 15.6651C12.3863 15.7682 12.4885 15.8259 12.5937 15.8259C12.6453 15.8259 12.6976 15.812 12.7456 15.7828C12.8911 15.694 12.9409 15.4973 12.8569 15.3435L11.3918 12.6614L14.026 13.4075C14.0524 13.4149 14.0789 13.4185 14.1049 13.4185C14.2393 13.4185 14.3622 13.3237 14.3987 13.18C14.4422 13.0085 14.3458 12.8322 14.1835 12.7862L10.9615 11.8738L9.73199 9.62309L10.4461 8.31587H12.905L15.2637 10.8088C15.3231 10.8716 15.401 10.903 15.4789 10.903C15.5567 10.903 15.6346 10.8716 15.694 10.8088C15.8129 10.6832 15.8129 10.4796 15.694 10.354L13.7656 8.31587H16.6957C16.8638 8.31587 17 8.17189 17 7.99431C17 7.81681 16.8638 7.67283 16.6957 7.67283ZM9.21902 9.27577H7.81901L7.11901 7.99435L7.81901 6.71293H9.21902L9.91903 7.99435L9.21902 9.27577Z" fill="#061962"/>
</g>
</svg>
