<svg width="17" height="17" viewBox="0 0 17 17" fill="none" xmlns="http://www.w3.org/2000/svg">
<g opacity="0.5">
<path d="M16.9982 12.6961C16.9779 12.0875 16.7852 11.5099 16.4407 11.0258C16.069 10.5033 15.536 10.1187 14.8993 9.91363L13.1945 9.36462C13.0199 9.30844 12.8328 9.40433 12.7766 9.57888C12.7204 9.75343 12.8163 9.94049 12.9909 9.99671L14.6957 10.5457C15.8632 10.9217 16.3077 11.9145 16.3345 12.7182C16.3613 13.522 15.9838 14.5422 14.8439 14.995L11.7046 16.2421C11.1097 16.4785 10.6129 16.2161 10.3464 15.8917C10.08 15.5673 9.91906 15.0291 10.2665 14.4913C10.9811 13.3852 11.0445 11.9738 10.4319 10.808L9.91109 9.81671C10.2324 9.47253 10.4296 9.01111 10.4296 8.50423C10.4296 8.18883 10.3529 7.89123 10.2179 7.62823L11.1168 7.15588C12.0707 6.65465 13.2257 6.70651 14.1309 7.29132C14.8213 7.73733 15.6779 7.68846 16.3131 7.16667C16.9483 6.64492 17.1626 5.81415 16.8591 5.05018L15.612 1.91092C15.3651 1.28926 14.9459 0.783016 14.3998 0.446868C13.8938 0.135423 13.3049 -0.01854 12.696 0.00178025C12.0874 0.0220673 11.5098 0.214844 11.0257 0.55926C10.5032 0.931002 10.1186 1.46404 9.91355 2.10075L8.47118 6.57971C8.16943 6.58482 7.88455 6.65963 7.63164 6.78879L7.15581 5.88321C6.65458 4.92922 6.70644 3.77428 7.29125 2.8691C7.7373 2.17864 7.68835 1.32207 7.1666 0.686859C6.64489 0.0515849 5.81412 -0.162741 5.05018 0.140735L1.91091 1.38784C1.28925 1.63481 0.783007 2.054 0.44686 2.60012C0.135417 3.10614 -0.0185119 3.69529 0.00177509 4.30387C0.0220621 4.91245 0.214838 5.49005 0.559252 5.97422C0.930992 6.49674 1.46403 6.88133 2.10073 7.08636L4.31245 7.79859C4.34628 7.80949 4.38058 7.81466 4.41431 7.81466C4.55459 7.81466 4.68495 7.72502 4.73027 7.5843C4.78648 7.40975 4.69056 7.22269 4.51601 7.16647L2.3043 6.45427C1.13682 6.07831 0.692263 5.0855 0.665502 4.28176C0.638707 3.47801 1.01622 2.45781 2.15611 2.00499L5.29535 0.757881C5.89035 0.521574 6.3871 0.783912 6.65355 1.10827C6.92 1.43263 7.08094 1.97086 6.73354 2.50865C6.01894 3.61477 5.95553 5.02617 6.56805 6.192L7.09475 7.19443C6.77497 7.53832 6.57884 7.99868 6.57884 8.50419C6.57884 8.81554 6.65358 9.10955 6.78533 9.37006L5.88314 9.8441C4.92922 10.3453 3.77423 10.2935 2.86905 9.70867C2.17859 9.26262 1.32199 9.31156 0.686818 9.83331C0.0516459 10.3551 -0.162679 11.1859 0.140796 11.9498L1.3879 15.0891C1.63486 15.7108 2.05405 16.217 2.60017 16.5532C3.07667 16.8464 3.62684 17 4.1976 17C4.23296 17 4.26842 16.9994 4.30395 16.9982C4.91252 16.978 5.49012 16.7852 5.97429 16.4408C6.4968 16.069 6.88139 15.536 7.08642 14.8993L8.52596 10.429C8.8306 10.4257 9.11834 10.3511 9.3736 10.2213L9.84415 11.1168C10.3454 12.0708 10.2935 13.2258 9.70872 14.131C9.26267 14.8214 9.31161 15.678 9.83336 16.3132C10.1978 16.7569 10.7129 16.9952 11.2508 16.9952C11.483 16.9952 11.7195 16.9508 11.9499 16.8593L15.0891 15.6121C15.7107 15.3652 16.217 14.946 16.5531 14.3999C16.8646 13.8939 17.0185 13.3047 16.9982 12.6961ZM6.4543 14.6957C6.07834 15.8632 5.08554 16.3077 4.2818 16.3345C3.47806 16.3611 2.45786 15.9838 2.00504 14.8439L0.757939 11.7046C0.521567 11.1096 0.78397 10.6129 1.10833 10.3464C1.43272 10.08 1.97094 9.91908 2.5087 10.2664C3.61482 10.981 5.02618 11.0445 6.19203 10.4319L7.18875 9.90822C7.38106 10.0885 7.61013 10.2298 7.86357 10.3195L6.4543 14.6957ZM8.50422 9.76555C7.80871 9.76555 7.2429 9.1997 7.2429 8.50423C7.2429 7.80876 7.80875 7.24291 8.50422 7.24291C9.19969 7.24291 9.76553 7.80876 9.76553 8.50423C9.76553 9.1997 9.19972 9.76555 8.50422 9.76555ZM9.81098 7.09187C9.61794 6.91313 9.38838 6.77362 9.13484 6.68543L10.5457 2.30425C10.9217 1.13676 11.9145 0.692205 12.7182 0.665443C13.522 0.638449 14.5421 1.01617 14.995 2.15606L16.2421 5.29531C16.4784 5.89031 16.216 6.38703 15.8917 6.65352C15.5673 6.91997 15.0291 7.08091 14.4913 6.73351C13.3852 6.01888 11.9738 5.95549 10.808 6.56802L9.81098 7.09187Z" fill="#061962"/>
<path d="M11.6879 8.91784C11.6261 8.85608 11.5404 8.82056 11.4531 8.82056C11.3658 8.82056 11.2801 8.85608 11.2184 8.91784C11.1566 8.9796 11.1211 9.06526 11.1211 9.15259C11.1211 9.23991 11.1566 9.32558 11.2184 9.38734C11.2801 9.44909 11.3658 9.48462 11.4531 9.48462C11.5404 9.48462 11.6261 9.44909 11.6879 9.38734C11.7496 9.32558 11.7852 9.23991 11.7852 9.15259C11.7852 9.06526 11.7496 8.9796 11.6879 8.91784Z" fill="#061962"/>
<path d="M5.93152 7.66076C5.86943 7.599 5.7841 7.56348 5.69678 7.56348C5.60912 7.56348 5.52379 7.599 5.46203 7.66076C5.39994 7.72252 5.36475 7.80818 5.36475 7.89551C5.36475 7.98317 5.39994 8.06883 5.46203 8.13059C5.52379 8.19235 5.60912 8.22754 5.69678 8.22754C5.7841 8.22754 5.86977 8.19235 5.93152 8.13059C5.99328 8.0685 6.02881 7.98317 6.02881 7.89551C6.02881 7.80818 5.99328 7.72285 5.93152 7.66076Z" fill="#061962"/>
</g>
</svg>
