<svg width="22" height="22" viewBox="0 0 22 22" fill="none" xmlns="http://www.w3.org/2000/svg">
<path d="M10.9999 20.1666C16.0625 20.1666 20.1666 16.0625 20.1666 10.9999C20.1666 5.93731 16.0625 1.83325 10.9999 1.83325C5.93731 1.83325 1.83325 5.93731 1.83325 10.9999C1.83325 16.0625 5.93731 20.1666 10.9999 20.1666Z" stroke="#061962" stroke-linecap="round" stroke-linejoin="round"/>
<path d="M6.91162 11C6.91162 13.7867 7.36079 16.5733 8.24995 19.25H7.33329" stroke="#061962" stroke-linecap="round" stroke-linejoin="round"/>
<path d="M7.33337 2.75H8.25003C7.80087 4.08833 7.47087 5.45417 7.2417 6.83833" stroke="#061962" stroke-linecap="round" stroke-linejoin="round"/>
<path d="M14.7858 14.9966C14.5567 16.4266 14.2175 17.8566 13.75 19.2499" stroke="#061962" stroke-linecap="round" stroke-linejoin="round"/>
<path d="M13.75 2.75C14.6392 5.42667 15.0883 8.21333 15.0883 11" stroke="#061962" stroke-linecap="round" stroke-linejoin="round"/>
<path d="M2.75 14.6667V13.75C8.10333 15.5375 13.8967 15.5375 19.25 13.75V14.6667" stroke="#061962" stroke-linecap="round" stroke-linejoin="round"/>
<path d="M2.75 8.25005C8.10333 6.46255 13.8967 6.46255 19.25 8.25005" stroke="#061962" stroke-linecap="round" stroke-linejoin="round"/>
</svg>
