<svg width="20" height="20" viewBox="0 0 20 20" fill="none" xmlns="http://www.w3.org/2000/svg">
<path d="M7.82508 4.00841C7.97508 4.21675 8.08341 4.40841 8.15841 4.59175C8.23341 4.76675 8.27508 4.94175 8.27508 5.10008C8.27508 5.30008 8.21675 5.50008 8.10008 5.69175C7.99175 5.88341 7.83341 6.08341 7.63341 6.28341L7.00008 6.94175C6.90841 7.03341 6.86675 7.14175 6.86675 7.27508C6.86675 7.34175 6.87508 7.40008 6.89175 7.46675C6.91675 7.53341 6.94175 7.58341 6.95842 7.63341C7.10842 7.90841 7.36675 8.26675 7.73341 8.70008C8.10841 9.13341 8.50841 9.57508 8.94175 10.0167C9.39175 10.4584 9.82508 10.8667 10.2667 11.2417C10.7001 11.6084 11.0584 11.8584 11.3417 12.0084C11.3834 12.0251 11.4334 12.0501 11.4917 12.0751C11.5584 12.1001 11.6251 12.1084 11.7001 12.1084C11.8417 12.1084 11.9501 12.0584 12.0417 11.9667L12.6751 11.3417C12.8834 11.1334 13.0834 10.9751 13.2751 10.8751C13.4667 10.7584 13.6584 10.7001 13.8667 10.7001C14.0251 10.7001 14.1917 10.7334 14.3751 10.8084C14.5584 10.8834 14.7501 10.9917 14.9584 11.1334L17.7167 13.0917C17.9334 13.2417 18.0834 13.4167 18.1751 13.6251C18.2584 13.8334 18.3084 14.0417 18.3084 14.2751C18.3084 14.5751 18.2417 14.8834 18.1001 15.1834C17.9584 15.4834 17.7751 15.7667 17.5334 16.0334C17.1251 16.4834 16.6751 16.8084 16.1667 17.0167C15.6667 17.2251 15.1251 17.3334 14.5417 17.3334C13.6917 17.3334 12.7834 17.1334 11.8251 16.7251C10.8667 16.3167 9.90842 15.7667 8.95842 15.0751C8.00008 14.3751 7.09175 13.6001 6.22508 12.7417C5.36675 11.8751 4.59175 10.9667 3.90008 10.0167C3.21675 9.06675 2.66675 8.11675 2.26675 7.17508C1.86675 6.22508 1.66675 5.31675 1.66675 4.45008C1.66675 3.88341 1.76675 3.34175 1.96675 2.84175C2.16675 2.33341 2.48341 1.86675 2.92508 1.45008C3.45841 0.925081 4.04175 0.666748 4.65841 0.666748C4.89175 0.666748 5.12508 0.716748 5.33341 0.816748C5.55008 0.916748 5.74175 1.06675 5.89175 1.28341" stroke="#061962" stroke-miterlimit="10" stroke-linecap="round" stroke-linejoin="round"/>
</svg>
