<svg width="68" height="68" viewBox="0 0 68 68" fill="none" xmlns="http://www.w3.org/2000/svg">
<path d="M42.3301 22.7799C42.9534 24.0266 43.3218 25.4433 43.3218 26.9449C43.2934 31.9599 39.3551 36.0683 34.3684 36.2099C34.1701 36.1816 33.9151 36.1816 33.6884 36.2099C28.7018 36.0399 24.7351 31.9599 24.7351 26.9449C24.7351 21.8166 28.8718 17.6516 34.0284 17.6516" stroke="white" stroke-width="2" stroke-linecap="round" stroke-linejoin="round"/>
<path d="M53.0967 54.9099C48.0533 59.5283 41.3667 62.3333 34 62.3333C26.6333 62.3333 19.9467 59.5283 14.9033 54.9099C15.1867 52.2466 16.8867 49.6399 19.9183 47.5999C27.6817 42.4433 40.375 42.4433 48.0817 47.5999C51.1133 49.6399 52.8133 52.2466 53.0967 54.9099Z" stroke="white" stroke-width="2" stroke-linecap="round" stroke-linejoin="round"/>
<path d="M11.3334 17.0001C7.79175 21.7317 5.66675 27.6251 5.66675 34.0001C5.66675 49.6401 18.3601 62.3334 34.0001 62.3334C49.6401 62.3334 62.3334 49.6401 62.3334 34.0001C62.3334 18.3601 49.6401 5.66675 34.0001 5.66675C29.9484 5.66675 26.0667 6.51675 22.5817 8.07508" stroke="white" stroke-width="2" stroke-linecap="round" stroke-linejoin="round"/>
</svg>
