<svg width="20" height="20" viewBox="0 0 20 20" fill="none" xmlns="http://www.w3.org/2000/svg">
<path d="M7.82508 4.00829C7.97508 4.21663 8.08341 4.40829 8.15841 4.59163C8.23341 4.76663 8.27508 4.94163 8.27508 5.09996C8.27508 5.29996 8.21675 5.49996 8.10008 5.69163C7.99175 5.88329 7.83341 6.08329 7.63341 6.28329L7.00008 6.94163C6.90841 7.03329 6.86675 7.14163 6.86675 7.27496C6.86675 7.34163 6.87508 7.39996 6.89175 7.46663C6.91675 7.53329 6.94175 7.58329 6.95842 7.63329C7.10842 7.90829 7.36675 8.26663 7.73341 8.69996C8.10841 9.13329 8.50841 9.57496 8.94175 10.0166C9.39175 10.4583 9.82508 10.8666 10.2667 11.2416C10.7001 11.6083 11.0584 11.8583 11.3417 12.0083C11.3834 12.025 11.4334 12.05 11.4917 12.075C11.5584 12.1 11.6251 12.1083 11.7001 12.1083C11.8417 12.1083 11.9501 12.0583 12.0417 11.9666L12.6751 11.3416C12.8834 11.1333 13.0834 10.975 13.2751 10.875C13.4667 10.7583 13.6584 10.7 13.8667 10.7C14.0251 10.7 14.1917 10.7333 14.3751 10.8083C14.5584 10.8833 14.7501 10.9916 14.9584 11.1333L17.7167 13.0916C17.9334 13.2416 18.0834 13.4166 18.1751 13.625C18.2584 13.8333 18.3084 14.0416 18.3084 14.275C18.3084 14.575 18.2417 14.8833 18.1001 15.1833C17.9584 15.4833 17.7751 15.7666 17.5334 16.0333C17.1251 16.4833 16.6751 16.8083 16.1667 17.0166C15.6667 17.225 15.1251 17.3333 14.5417 17.3333C13.6917 17.3333 12.7834 17.1333 11.8251 16.725C10.8667 16.3166 9.90842 15.7666 8.95842 15.075C8.00008 14.375 7.09175 13.6 6.22508 12.7416C5.36675 11.875 4.59175 10.9666 3.90008 10.0166C3.21675 9.06663 2.66675 8.11663 2.26675 7.17496C1.86675 6.22496 1.66675 5.31663 1.66675 4.44996C1.66675 3.88329 1.76675 3.34163 1.96675 2.84163C2.16675 2.33329 2.48341 1.86663 2.92508 1.44996C3.45841 0.924959 4.04175 0.666626 4.65841 0.666626C4.89175 0.666626 5.12508 0.716626 5.33341 0.816626C5.55008 0.916626 5.74175 1.06663 5.89175 1.28329" stroke="#061962" stroke-miterlimit="10" stroke-linecap="round" stroke-linejoin="round"/>
</svg>
