<svg width="39" height="39" viewBox="0 0 39 39" fill="none" xmlns="http://www.w3.org/2000/svg">
<path d="M30.4615 9.72375H8.53845C7.13709 9.72531 6.00146 10.9336 6 12.4247V17.5564C6.00146 19.0475 7.13709 20.2558 8.53845 20.2574H30.4615C31.8629 20.2558 32.9985 19.0475 33 17.5564V12.4247C32.9985 10.9336 31.8629 9.72531 30.4615 9.72375ZM32.1 17.5564C32.099 18.5188 31.3661 19.2987 30.4615 19.2998H8.53845C7.63395 19.2987 6.90101 18.5188 6.9 17.5564V12.4247C6.90101 11.4623 7.63395 10.6824 8.53845 10.6814H30.4615C31.3661 10.6824 32.099 11.4623 32.1 12.4247V17.5564Z" fill="#144FA3"/>
<path d="M10.9096 21.1217C10.6611 21.1217 10.4596 21.3361 10.4596 21.6005V23.6531C10.4614 24.3584 10.1979 25.0351 9.72792 25.5324C9.12998 26.14 8.18881 26.14 7.59087 25.5324C7.27042 25.1898 7.27171 24.6356 7.59368 24.2947C7.74342 24.1361 7.9448 24.0449 8.15607 24.04C8.38062 24.0366 8.59702 24.1296 8.75637 24.2981L8.79327 24.3368C8.97282 24.5197 9.25767 24.513 9.42952 24.3219C9.59737 24.1352 9.59579 23.8406 9.42597 23.656L9.39087 23.6191C9.06968 23.2743 8.63212 23.0809 8.17587 23.0819H8.13762C7.18621 23.1029 6.43088 23.9405 6.45057 24.9528C6.4598 25.4256 6.64036 25.8764 6.95457 26.2109C7.89614 27.2126 9.42265 27.2126 10.3642 26.2109C11.0036 25.5344 11.3621 24.614 11.3596 23.6546V21.6005C11.3596 21.3361 11.1581 21.1217 10.9096 21.1217Z" fill="#144FA3"/>
<path d="M14.0998 21.6936C13.8513 21.6936 13.6498 21.908 13.6498 22.1724V23.773C13.654 25.3812 13.0533 26.9243 11.9816 28.0583C11.8029 28.242 11.7979 28.5451 11.9706 28.7353C12.1433 28.9255 12.4281 28.9308 12.6069 28.747C12.6107 28.7432 12.6143 28.7393 12.6179 28.7353C13.859 27.4222 14.5547 25.6353 14.5498 23.773V22.1724C14.5498 21.908 14.3483 21.6936 14.0998 21.6936Z" fill="#144FA3"/>
<path d="M17.2503 24.0879C17.0018 24.0879 16.8003 24.3023 16.8003 24.5667V29.3547C16.8003 29.6191 17.0018 29.8335 17.2503 29.8335C17.4988 29.8335 17.7003 29.6191 17.7003 29.3547V24.5667C17.7003 24.3023 17.4988 24.0879 17.2503 24.0879Z" fill="#144FA3"/>
<path d="M17.2503 21.2152C17.0018 21.2152 16.8003 21.4296 16.8003 21.694V22.6516C16.8003 22.916 17.0018 23.1304 17.2503 23.1304C17.4988 23.1304 17.7003 22.916 17.7003 22.6516V21.694C17.7003 21.4296 17.4988 21.2152 17.2503 21.2152Z" fill="#144FA3"/>
<path d="M32.0406 23.6167C31.727 23.2842 31.3052 23.0929 30.8626 23.0824C30.3946 23.0732 29.9431 23.2662 29.6111 23.6172L29.5742 23.656C29.3946 23.8388 29.3884 24.1419 29.5602 24.333C29.732 24.5241 30.0168 24.5308 30.1964 24.3479C30.2 24.3443 30.2035 24.3406 30.2069 24.3368L30.2456 24.2961C30.4049 24.129 30.6205 24.0368 30.8441 24.04C31.2984 24.0494 31.6594 24.4489 31.6505 24.9322C31.6463 25.1585 31.5599 25.3743 31.4094 25.5343C30.8115 26.1419 29.8703 26.1419 29.2723 25.5343C28.8023 25.037 28.5388 24.3603 28.5406 23.655V21.6005C28.5406 21.3361 28.3392 21.1217 28.0906 21.1217C27.8421 21.1217 27.6406 21.3361 27.6406 21.6005V23.6531C27.6379 24.6123 27.9961 25.5328 28.6351 26.2094C29.5767 27.2111 31.1032 27.2111 32.0448 26.2094C32.7165 25.4923 32.7147 24.3315 32.0406 23.6167Z" fill="#144FA3"/>
<path d="M27.0179 28.0583C25.9462 26.9243 25.3455 25.3812 25.3497 23.773V22.1724C25.3497 21.908 25.1482 21.6936 24.8997 21.6936C24.6512 21.6936 24.4497 21.908 24.4497 22.1724V23.773C24.4448 25.6353 25.1405 27.4222 26.3816 28.7353C26.5603 28.9191 26.8452 28.9138 27.0179 28.7236C27.1864 28.538 27.1864 28.2438 27.0179 28.0583Z" fill="#144FA3"/>
<path d="M21.7503 24.0879C21.5018 24.0879 21.3003 24.3023 21.3003 24.5667V29.3547C21.3003 29.6191 21.5018 29.8335 21.7503 29.8335C21.9988 29.8335 22.2003 29.6191 22.2003 29.3547V24.5667C22.2003 24.3023 21.9988 24.0879 21.7503 24.0879Z" fill="#144FA3"/>
<path d="M21.7503 21.2152C21.5018 21.2152 21.3003 21.4296 21.3003 21.694V22.6516C21.3003 22.916 21.5018 23.1304 21.7503 23.1304C21.9988 23.1304 22.2003 22.916 22.2003 22.6516V21.694C22.2003 21.4296 21.9988 21.2152 21.7503 21.2152Z" fill="#144FA3"/>
<path d="M30.3005 17.3844H8.70049C8.45198 17.3844 8.25049 17.5988 8.25049 17.8632C8.25049 18.1276 8.45198 18.342 8.70049 18.342H30.3005C30.549 18.342 30.7505 18.1276 30.7505 17.8632C30.7505 17.5988 30.549 17.3844 30.3005 17.3844Z" fill="#144FA3"/>
<path d="M30.3005 15.4692H8.70049C8.45198 15.4692 8.25049 15.6836 8.25049 15.948C8.25049 16.2125 8.45198 16.4268 8.70049 16.4268H30.3005C30.549 16.4268 30.7505 16.2125 30.7505 15.948C30.7505 15.6836 30.549 15.4692 30.3005 15.4692Z" fill="#144FA3"/>
<path d="M29.8502 11.639H28.0502C27.3046 11.639 26.7002 12.2821 26.7002 13.0754C26.7002 13.8687 27.3046 14.5118 28.0502 14.5118H29.8502C30.5958 14.5118 31.2002 13.8687 31.2002 13.0754C31.2002 12.2821 30.5958 11.639 29.8502 11.639ZM29.8502 13.5542H28.0502C27.8017 13.5542 27.6002 13.3399 27.6002 13.0754C27.6002 12.811 27.8017 12.5966 28.0502 12.5966H29.8502C30.0987 12.5966 30.3002 12.811 30.3002 13.0754C30.3002 13.3399 30.0987 13.5542 29.8502 13.5542Z" fill="#144FA3"/>
<path d="M24.9003 12.5961H24.0003C23.7518 12.5961 23.5503 12.8105 23.5503 13.0749C23.5503 13.3393 23.7518 13.5537 24.0003 13.5537H24.9003C25.1488 13.5537 25.3503 13.3393 25.3503 13.0749C25.3503 12.8105 25.1488 12.5961 24.9003 12.5961Z" fill="#144FA3"/>
<path d="M22.2001 12.5961H21.3001C21.0516 12.5961 20.8501 12.8105 20.8501 13.0749C20.8501 13.3393 21.0516 13.5537 21.3001 13.5537H22.2001C22.4486 13.5537 22.6501 13.3393 22.6501 13.0749C22.6501 12.8105 22.4486 12.5961 22.2001 12.5961Z" fill="#144FA3"/>
<path d="M29 1C34.4 1 38 4.71429 38 10.2857V14" stroke="#144FA3" stroke-width="1.2" stroke-miterlimit="10" stroke-linecap="round" stroke-linejoin="round"/>
<path d="M1 14V10.2857C1 4.71429 4.71402 1 10.285 1H21" stroke="#144FA3" stroke-width="1.2" stroke-miterlimit="10" stroke-linecap="round" stroke-linejoin="round"/>
<path d="M38 25V28.7143C38 34.2857 34.2013 38 28.5033 38H18" stroke="#144FA3" stroke-width="1.2" stroke-miterlimit="10" stroke-linecap="round" stroke-linejoin="round"/>
<path d="M1 25V28.7143C1 34.2857 4.6 38 10 38" stroke="#144FA3" stroke-width="1.2" stroke-miterlimit="10" stroke-linecap="round" stroke-linejoin="round"/>
</svg>
