<svg width="37" height="29" viewBox="0 0 37 29" fill="none" xmlns="http://www.w3.org/2000/svg">
<path d="M15.4287 6.93483C15.728 6.93483 15.9707 6.69159 15.9707 6.39155C15.9707 6.0915 15.728 5.84827 15.4287 5.84827C15.1294 5.84827 14.8867 6.0915 14.8867 6.39155C14.8867 6.69159 15.1294 6.93483 15.4287 6.93483Z" fill="#144FA3"/>
<path d="M13.3809 6.93483C13.6802 6.93483 13.9229 6.69159 13.9229 6.39155C13.9229 6.0915 13.6802 5.84827 13.3809 5.84827C13.0815 5.84827 12.8389 6.0915 12.8389 6.39155C12.8389 6.69159 13.0815 6.93483 13.3809 6.93483Z" fill="#144FA3"/>
<path d="M6.89404 6.93483C7.19338 6.93483 7.43604 6.69159 7.43604 6.39155C7.43604 6.0915 7.19338 5.84827 6.89404 5.84827C6.59471 5.84827 6.35205 6.0915 6.35205 6.39155C6.35205 6.69159 6.59471 6.93483 6.89404 6.93483Z" fill="#144FA3"/>
<path d="M4.84619 6.93483C5.14553 6.93483 5.38818 6.69159 5.38818 6.39155C5.38818 6.0915 5.14553 5.84827 4.84619 5.84827C4.54686 5.84827 4.3042 6.0915 4.3042 6.39155C4.3042 6.69159 4.54686 6.93483 4.84619 6.93483Z" fill="#144FA3"/>
<path d="M21.8921 6.93483C22.1914 6.93483 22.4341 6.69159 22.4341 6.39155C22.4341 6.0915 22.1914 5.84827 21.8921 5.84827C21.5928 5.84827 21.3501 6.0915 21.3501 6.39155C21.3501 6.69159 21.5928 6.93483 21.8921 6.93483Z" fill="#144FA3"/>
<path d="M23.9399 6.93483C24.2393 6.93483 24.4819 6.69159 24.4819 6.39155C24.4819 6.0915 24.2393 5.84827 23.9399 5.84827C23.6406 5.84827 23.3979 6.0915 23.3979 6.39155C23.3979 6.69159 23.6406 6.93483 23.9399 6.93483Z" fill="#144FA3"/>
<path d="M29.7014 4.69606H28.8342V1.70759C28.8342 1.00865 28.2669 0.439941 27.5696 0.439941H8.52002C8.2207 0.439941 7.97803 0.683186 7.97803 0.983221C7.97803 1.28326 8.2207 1.5265 8.52002 1.5265H27.5696C27.6692 1.5265 27.7503 1.60777 27.7503 1.70759V11.0761C27.7503 11.1759 27.6692 11.2572 27.5696 11.2572H20.9272C20.6278 11.2572 20.3852 11.5005 20.3852 11.8005C20.3852 12.1005 20.6278 12.3438 20.9272 12.3438H27.5696C28.2669 12.3438 28.8342 11.7751 28.8342 11.0761V8.10062H29.7014C31.8531 8.10062 33.6038 9.85534 33.6038 12.0122C33.6038 14.169 31.8532 15.9238 29.7014 15.9238L8.07537 15.9249C5.02453 15.9251 2.54228 18.4131 2.54199 21.4714C2.54192 22.953 3.11737 24.346 4.16248 25.3936C5.20758 26.4414 6.59718 27.0185 8.07523 27.0186L15.082 27.0194V27.4951C15.082 28.0822 15.5585 28.5599 16.1443 28.5599H19.2045C20.0805 28.5599 20.8253 27.9885 21.0889 27.1981H22.9617C23.2611 27.1981 23.5037 26.9549 23.5037 26.6548C23.5037 26.3548 23.2611 26.1116 22.9617 26.1116H21.1912V24.5228H22.9617C23.2611 24.5228 23.5037 24.2796 23.5037 23.9795C23.5037 23.6795 23.2611 23.4362 22.9617 23.4362H21.0889C20.8253 22.6459 20.0805 22.0744 19.2045 22.0744H16.1443C15.5585 22.0744 15.082 22.5521 15.082 23.1392V23.6149H8.07638C6.89737 23.6149 5.93819 22.6534 5.93819 21.4716C5.93819 20.2898 6.89737 19.3282 8.07638 19.3282H29.7014C33.726 19.3282 37.0003 16.0462 37.0003 12.0121C37.0003 7.97813 33.726 4.69606 29.7014 4.69606ZM16.1659 23.1611H19.2044C19.7022 23.1611 20.1072 23.5671 20.1072 24.0661V26.5686C20.1072 27.0677 19.7022 27.4736 19.2044 27.4736H16.1659V23.1611ZM29.7014 18.2418H8.07631C6.29959 18.2418 4.85413 19.6908 4.85413 21.4717C4.85413 23.2527 6.29959 24.7016 8.07631 24.7016H15.082V25.933L8.0753 25.9321C6.88675 25.9321 5.76938 25.468 4.929 24.6255C4.08862 23.7831 3.62583 22.6629 3.62598 21.4715C3.62612 19.0124 5.62217 17.0117 8.07544 17.0116L29.7014 17.0104C31.0334 17.0104 32.2855 16.4905 33.2273 15.5465C34.1691 14.6024 34.6878 13.3473 34.6878 12.0122C34.6878 9.25628 32.4509 7.01413 29.7014 7.01413H28.8342V5.7827H29.7014C33.1283 5.7827 35.9163 8.57726 35.9163 12.0122C35.9163 15.4472 33.1283 18.2418 29.7014 18.2418Z" fill="#144FA3"/>
<path d="M19.3009 11.8005C19.3009 11.5005 19.0583 11.2572 18.7589 11.2572H1.26465C1.16507 11.2572 1.08398 11.1759 1.08398 11.0761V1.70759C1.08398 1.60777 1.16507 1.5265 1.26465 1.5265H6.35179C6.65111 1.5265 6.89378 1.28326 6.89378 0.983221C6.89378 0.683186 6.65111 0.439941 6.35179 0.439941H1.26465C0.567357 0.439941 0 1.00857 0 1.70759V11.0761C0 11.7751 0.567357 12.3438 1.26465 12.3438H18.7589C19.0583 12.3438 19.3009 12.1005 19.3009 11.8005Z" fill="#144FA3"/>
<path d="M18.1387 6.39263C18.1387 4.33563 16.4691 2.66211 14.417 2.66211C12.3649 2.66211 10.6953 4.33563 10.6953 6.39263C10.6953 8.44963 12.3649 10.1231 14.417 10.1231C16.4691 10.1231 18.1387 8.44963 18.1387 6.39263ZM11.7793 6.39263C11.7793 4.93476 12.9626 3.74867 14.417 3.74867C15.8714 3.74867 17.0547 4.93476 17.0547 6.39263C17.0547 7.8505 15.8714 9.03659 14.417 9.03659C12.9626 9.03659 11.7793 7.8505 11.7793 6.39263Z" fill="#144FA3"/>
<path d="M2.16064 6.39263C2.16064 8.44963 3.8302 10.1231 5.88232 10.1231C7.93445 10.1231 9.604 8.44963 9.604 6.39263C9.604 4.33563 7.93445 2.66211 5.88232 2.66211C3.8302 2.66211 2.16064 4.33563 2.16064 6.39263ZM8.52002 6.39263C8.52002 7.8505 7.33674 9.03659 5.88232 9.03659C4.42791 9.03659 3.24463 7.8505 3.24463 6.39263C3.24463 4.93476 4.42791 3.74867 5.88232 3.74867C7.33674 3.74867 8.52002 4.93476 8.52002 6.39263Z" fill="#144FA3"/>
<path d="M22.9038 10.1231C24.9559 10.1231 26.6255 8.44963 26.6255 6.39263C26.6255 4.33563 24.9559 2.66211 22.9038 2.66211C20.8517 2.66211 19.1821 4.33563 19.1821 6.39263C19.1821 8.44963 20.8517 10.1231 22.9038 10.1231ZM22.9038 3.74867C24.3582 3.74867 25.5415 4.93476 25.5415 6.39263C25.5415 7.8505 24.3582 9.03659 22.9038 9.03659C21.4494 9.03659 20.2661 7.8505 20.2661 6.39263C20.2661 4.93476 21.4494 3.74867 22.9038 3.74867Z" fill="#144FA3"/>
</svg>
