<svg width="39" height="39" viewBox="0 0 39 39" fill="none" xmlns="http://www.w3.org/2000/svg">
<path d="M17.206 13.8504C17.4296 13.8504 17.6108 13.6687 17.6108 13.4447C17.6108 13.2206 17.4296 13.0389 17.206 13.0389C16.9825 13.0389 16.8013 13.2206 16.8013 13.4447C16.8013 13.6687 16.9825 13.8504 17.206 13.8504Z" fill="#144FA3"/>
<path d="M15.6767 13.8504C15.9003 13.8504 16.0815 13.6687 16.0815 13.4447C16.0815 13.2206 15.9003 13.0389 15.6767 13.0389C15.4532 13.0389 15.272 13.2206 15.272 13.4447C15.272 13.6687 15.4532 13.8504 15.6767 13.8504Z" fill="#144FA3"/>
<path d="M10.8325 13.8504C11.056 13.8504 11.2372 13.6687 11.2372 13.4447C11.2372 13.2206 11.056 13.0389 10.8325 13.0389C10.609 13.0389 10.4277 13.2206 10.4277 13.4447C10.4277 13.6687 10.609 13.8504 10.8325 13.8504Z" fill="#144FA3"/>
<path d="M9.30319 13.8504C9.52674 13.8504 9.70795 13.6687 9.70795 13.4447C9.70795 13.2206 9.52674 13.0389 9.30319 13.0389C9.07965 13.0389 8.89844 13.2206 8.89844 13.4447C8.89844 13.6687 9.07965 13.8504 9.30319 13.8504Z" fill="#144FA3"/>
<path d="M22.0332 13.8504C22.2567 13.8504 22.4379 13.6687 22.4379 13.4447C22.4379 13.2206 22.2567 13.0389 22.0332 13.0389C21.8096 13.0389 21.6284 13.2206 21.6284 13.4447C21.6284 13.6687 21.8096 13.8504 22.0332 13.8504Z" fill="#144FA3"/>
<path d="M23.5625 13.8504C23.786 13.8504 23.9672 13.6687 23.9672 13.4447C23.9672 13.2206 23.786 13.0389 23.5625 13.0389C23.3389 13.0389 23.1577 13.2206 23.1577 13.4447C23.1577 13.6687 23.3389 13.8504 23.5625 13.8504Z" fill="#144FA3"/>
<path d="M27.8651 12.1785H27.2175V9.94668C27.2175 9.42471 26.7938 9 26.273 9H12.0469C11.8233 9 11.6421 9.18165 11.6421 9.40572C11.6421 9.62978 11.8233 9.81144 12.0469 9.81144H26.273C26.3474 9.81144 26.4079 9.87213 26.4079 9.94668V16.943C26.4079 17.0176 26.3474 17.0783 26.273 17.0783H21.3125C21.0889 17.0783 20.9077 17.2599 20.9077 17.484C20.9077 17.7081 21.0889 17.8897 21.3125 17.8897H26.273C26.7938 17.8897 27.2175 17.465 27.2175 16.943V14.721H27.8651C29.472 14.721 30.7793 16.0314 30.7793 17.6421C30.7793 19.2528 29.472 20.5632 27.8651 20.5632L11.7148 20.5641C9.43647 20.5642 7.58274 22.4223 7.58252 24.7062C7.58247 25.8127 8.01221 26.8529 8.79269 27.6353C9.57317 28.4177 10.6109 28.8487 11.7147 28.8488L16.9474 28.8494V29.2047C16.9474 29.6431 17.3032 29.9999 17.7407 29.9999H20.026C20.6802 29.9999 21.2364 29.5731 21.4333 28.9829H22.8319C23.0554 28.9829 23.2366 28.8012 23.2366 28.5772C23.2366 28.3531 23.0554 28.1714 22.8319 28.1714H21.5097V26.985H22.8319C23.0554 26.985 23.2366 26.8033 23.2366 26.5792C23.2366 26.3552 23.0554 26.1735 22.8319 26.1735H21.4333C21.2364 25.5833 20.6802 25.1565 20.026 25.1565H17.7407C17.3032 25.1565 16.9474 25.5132 16.9474 25.9517V26.3069H11.7156C10.8351 26.3069 10.1188 25.5889 10.1188 24.7063C10.1188 23.8238 10.8351 23.1057 11.7156 23.1057H27.8651C30.8706 23.1057 33.3158 20.6547 33.3158 17.642C33.3158 14.6295 30.8706 12.1785 27.8651 12.1785ZM17.7568 25.9681H20.0259C20.3977 25.9681 20.7001 26.2712 20.7001 26.6439V28.5128C20.7001 28.8855 20.3977 29.1886 20.0259 29.1886H17.7568V25.9681ZM27.8651 22.2944H11.7155C10.3887 22.2944 9.30921 23.3764 9.30921 24.7064C9.30921 26.0364 10.3887 27.1185 11.7155 27.1185H16.9473V28.0381L11.7148 28.0374C10.8272 28.0374 9.99271 27.6909 9.36512 27.0617C8.73753 26.4325 8.39193 25.596 8.39203 24.7063C8.39214 22.8698 9.88278 21.3757 11.7149 21.3756L27.8651 21.3747C28.8597 21.3747 29.7948 20.9865 30.4981 20.2815C31.2015 19.5765 31.5888 18.6392 31.5888 17.6421C31.5888 15.584 29.9184 13.9096 27.8651 13.9096H27.2175V12.9899H27.8651C30.4242 12.9899 32.5063 15.0769 32.5063 17.6421C32.5063 20.2074 30.4242 22.2944 27.8651 22.2944Z" fill="#144FA3"/>
<path d="M20.0979 17.484C20.0979 17.2599 19.9167 17.0783 19.6932 17.0783H6.62852C6.55415 17.0783 6.4936 17.0176 6.4936 16.943V9.94668C6.4936 9.87213 6.55415 9.81144 6.62852 9.81144H10.4276C10.6511 9.81144 10.8323 9.62978 10.8323 9.40572C10.8323 9.18165 10.6511 9 10.4276 9H6.62852C6.10778 9 5.68408 9.42465 5.68408 9.94668V16.943C5.68408 17.465 6.10778 17.8897 6.62852 17.8897H19.6932C19.9167 17.8897 20.0979 17.7081 20.0979 17.484Z" fill="#144FA3"/>
<path d="M19.2301 13.4455C19.2301 11.9093 17.9832 10.6595 16.4507 10.6595C14.9182 10.6595 13.6714 11.9093 13.6714 13.4455C13.6714 14.9816 14.9182 16.2314 16.4507 16.2314C17.9832 16.2314 19.2301 14.9816 19.2301 13.4455ZM14.4809 13.4455C14.4809 12.3567 15.3646 11.471 16.4507 11.471C17.5369 11.471 18.4205 12.3567 18.4205 13.4455C18.4205 14.5342 17.5369 15.42 16.4507 15.42C15.3646 15.42 14.4809 14.5342 14.4809 13.4455Z" fill="#144FA3"/>
<path d="M7.29785 13.4455C7.29785 14.9816 8.54467 16.2314 10.0772 16.2314C11.6097 16.2314 12.8565 14.9816 12.8565 13.4455C12.8565 11.9093 11.6097 10.6595 10.0772 10.6595C8.54467 10.6595 7.29785 11.9093 7.29785 13.4455ZM12.047 13.4455C12.047 14.5342 11.1633 15.42 10.0772 15.42C8.99103 15.42 8.10737 14.5342 8.10737 13.4455C8.10737 12.3567 8.99103 11.471 10.0772 11.471C11.1633 11.471 12.047 12.3567 12.047 13.4455Z" fill="#144FA3"/>
<path d="M22.7886 16.2314C24.3211 16.2314 25.5679 14.9816 25.5679 13.4455C25.5679 11.9093 24.3211 10.6595 22.7886 10.6595C21.2561 10.6595 20.0093 11.9093 20.0093 13.4455C20.0093 14.9816 21.2561 16.2314 22.7886 16.2314ZM22.7886 11.471C23.8748 11.471 24.7584 12.3567 24.7584 13.4455C24.7584 14.5342 23.8748 15.42 22.7886 15.42C21.7025 15.42 20.8188 14.5342 20.8188 13.4455C20.8188 12.3567 21.7025 11.471 22.7886 11.471Z" fill="#144FA3"/>
<path d="M29 1C34.4 1 38 4.71429 38 10.2857V14" stroke="#144FA3" stroke-width="1.2" stroke-miterlimit="10" stroke-linecap="round" stroke-linejoin="round"/>
<path d="M1 14V10.2857C1 4.71429 4.71402 1 10.285 1H21" stroke="#144FA3" stroke-width="1.2" stroke-miterlimit="10" stroke-linecap="round" stroke-linejoin="round"/>
<path d="M38 25V28.7143C38 34.2857 34.3913 38 28.9782 38H19" stroke="#144FA3" stroke-width="1.2" stroke-miterlimit="10" stroke-linecap="round" stroke-linejoin="round"/>
<path d="M1 25V28.7143C1 34.2857 4.6 38 10 38" stroke="#144FA3" stroke-width="1.2" stroke-miterlimit="10" stroke-linecap="round" stroke-linejoin="round"/>
</svg>
