<svg width="183" height="183" viewBox="0 0 183 183" fill="none" xmlns="http://www.w3.org/2000/svg">
<g clip-path="url(#clip0_1068_129384)" filter="url(#filter0_i_1068_129384)">
<path d="M156.315 62.2669C156.315 68.5498 154.452 74.6916 150.961 79.9157C147.47 85.1397 142.509 89.2114 136.704 91.6157C130.9 94.0201 124.512 94.6492 118.35 93.4235C112.188 92.1977 106.528 89.1722 102.085 84.7295C97.6424 80.2868 94.6169 74.6265 93.3912 68.4643C92.1654 62.3022 92.7945 55.9149 95.1989 50.1102C97.6033 44.3056 101.675 39.3443 106.899 35.8537C112.123 32.3631 118.265 30.5 124.548 30.5C132.973 30.5 141.053 33.8469 147.01 39.8043C152.968 45.7618 156.315 53.8418 156.315 62.2669Z" fill="#5868E0"/>
<path d="M90.2191 59.0715C90.2191 65.9854 88.1689 72.7441 84.3277 78.4929C80.4865 84.2417 75.0268 88.7223 68.6392 91.3682C62.2515 94.014 55.2226 94.7063 48.4415 93.3574C41.6604 92.0086 35.4315 88.6792 30.5426 83.7903C25.6537 78.9014 22.3243 72.6725 20.9754 65.8914C19.6266 59.1102 20.3189 52.0814 22.9647 45.6937C25.6106 39.306 30.0912 33.8464 35.84 30.0052C41.5887 26.164 48.3474 24.1138 55.2614 24.1138C64.5328 24.1138 73.4244 27.7968 79.9802 34.3526C86.5361 40.9085 90.2191 49.8001 90.2191 59.0715Z" fill="#5868E0"/>
<path d="M156.315 129.198C156.315 135.481 154.452 141.623 150.961 146.847C147.47 152.071 142.509 156.142 136.704 158.547C130.9 160.951 124.512 161.58 118.35 160.355C112.188 159.129 106.528 156.103 102.085 151.661C97.6424 147.218 94.6169 141.558 93.3912 135.395C92.1654 129.233 92.7945 122.846 95.1989 117.041C97.6033 111.237 101.675 106.275 106.899 102.785C112.123 99.2942 118.265 97.4311 124.548 97.4311C132.973 97.4311 141.053 100.778 147.01 106.735C152.968 112.693 156.315 120.773 156.315 129.198Z" fill="#5868E0"/>
<path d="M90.2188 125.585C90.2188 131.152 88.5683 136.594 85.476 141.223C82.3837 145.853 77.9883 149.461 72.8455 151.593C67.7027 153.725 62.0433 154.284 56.5828 153.2C51.1223 152.116 46.1057 149.437 42.1672 145.503C38.2287 141.568 35.5451 136.554 34.4556 131.095C33.3661 125.635 33.9196 119.975 36.0462 114.83C38.1727 109.685 41.7769 105.286 46.4031 102.19C51.0292 99.0925 56.4697 97.4366 62.0368 97.431C65.7364 97.4273 69.4005 98.1528 72.8195 99.566C76.2385 100.979 79.3455 103.052 81.9628 105.667C84.5801 108.282 86.6564 111.387 88.0731 114.804C89.4897 118.222 90.2188 121.885 90.2188 125.585Z" fill="#5868E0"/>
</g>
<defs>
<filter id="filter0_i_1068_129384" x="0" y="0" width="183" height="187" filterUnits="userSpaceOnUse" color-interpolation-filters="sRGB">
<feFlood flood-opacity="0" result="BackgroundImageFix"/>
<feBlend mode="normal" in="SourceGraphic" in2="BackgroundImageFix" result="shape"/>
<feColorMatrix in="SourceAlpha" type="matrix" values="0 0 0 0 0 0 0 0 0 0 0 0 0 0 0 0 0 0 127 0" result="hardAlpha"/>
<feOffset dy="4"/>
<feGaussianBlur stdDeviation="2"/>
<feComposite in2="hardAlpha" operator="arithmetic" k2="-1" k3="1"/>
<feColorMatrix type="matrix" values="0 0 0 0 0 0 0 0 0 0 0 0 0 0 0 0 0 0 0.25 0"/>
<feBlend mode="normal" in2="shape" result="effect1_innerShadow_1068_129384"/>
</filter>
<clipPath id="clip0_1068_129384">
<rect width="183" height="183" fill="white"/>
</clipPath>
</defs>
</svg>
