<svg width="17" height="16" viewBox="0 0 17 16" fill="none" xmlns="http://www.w3.org/2000/svg">
<g opacity="0.5">
<path d="M4.38648 4.86144C5.80162 4.86144 7.21572 4.12744 8.64839 2.66024C11.0591 0.190526 14.102 0.191325 16.5888 2.6634C16.7116 2.78468 16.8762 2.73312 16.9565 2.54684C17.0369 2.3606 17.0026 2.11056 16.8798 1.98848C14.2106 -0.663954 10.9428 -0.662754 8.3511 1.99164C5.68554 4.72204 3.0891 4.72244 0.413921 1.99124C0.292132 1.8668 0.127153 1.91644 0.045182 2.10112C-0.0366566 2.28576 -0.00422398 2.5362 0.117432 2.66064C1.55501 4.12784 2.97119 4.86144 4.38648 4.86144Z" fill="#061962"/>
<path d="M16.8798 7.55733C14.2103 4.90489 10.9425 4.90609 8.35107 7.56049C5.68524 10.2917 3.0888 10.2913 0.413888 7.56009C0.2921 7.43565 0.127121 7.48489 0.0452822 7.66997C-0.0366893 7.85465 -0.00425664 8.10509 0.117399 8.22949C1.55485 9.69669 2.97091 10.4307 4.38618 10.4307C5.80132 10.4303 7.21545 9.69669 8.64835 8.22913C11.0588 5.75901 14.1017 5.76057 16.5888 8.23225C16.7116 8.35353 16.8763 8.30197 16.9566 8.11569C17.0369 7.92945 17.0025 7.67941 16.8798 7.55733Z" fill="#061962"/>
<path d="M16.8798 13.1266C14.2103 10.4749 10.9426 10.4761 8.35107 13.1297C5.68577 15.8609 3.08957 15.8617 0.413888 13.1293C0.2921 13.0049 0.127121 13.0545 0.0452822 13.2392C-0.0366893 13.4239 -0.00425664 13.6743 0.117399 13.7988C1.55498 15.2663 2.97128 16.0003 4.38645 15.9999C5.80158 15.9999 7.21568 15.2659 8.64822 13.7984C11.0591 11.329 14.1017 11.3298 16.5888 13.8015C16.7116 13.9228 16.8763 13.8712 16.9566 13.685C17.0369 13.4987 17.0025 13.2486 16.8798 13.1266Z" fill="#061962"/>
</g>
</svg>
