<svg width="37" height="28" viewBox="0 0 37 28" fill="none" xmlns="http://www.w3.org/2000/svg">
<path d="M33.5214 -0.00012207H3.47862C1.55824 0.00201036 0.00200417 1.65784 0 3.70113V10.7336C0.00200417 12.7768 1.55824 14.4327 3.47862 14.4348H33.5214C35.4418 14.4327 36.998 12.7768 37 10.7336V3.70113C36.998 1.65784 35.4418 0.00201036 33.5214 -0.00012207ZM35.7667 10.7336C35.7653 12.0524 34.7609 13.1211 33.5214 13.1225H3.47862C2.23912 13.1211 1.23472 12.0524 1.23333 10.7336V3.70113C1.23472 2.3823 2.23912 1.31362 3.47862 1.31214H33.5214C34.7609 1.31362 35.7653 2.3823 35.7667 3.70113V10.7336Z" fill="#144FA3"/>
<path d="M6.72777 15.6191C6.38721 15.6191 6.1111 15.9129 6.1111 16.2753V19.0881C6.11357 20.0546 5.75251 20.982 5.1084 21.6634C4.289 22.4961 2.99924 22.4961 2.17985 21.6634C1.7407 21.1939 1.74248 20.4345 2.1837 19.9673C2.3889 19.75 2.66486 19.625 2.95438 19.6183C3.2621 19.6137 3.55864 19.7411 3.77701 19.9719L3.82758 20.0251C4.07363 20.2756 4.46398 20.2665 4.69947 20.0046C4.92949 19.7488 4.92733 19.345 4.69462 19.0921L4.64651 19.0415C4.20637 18.569 3.60674 18.304 2.98152 18.3054H2.9291C1.62531 18.3341 0.590236 19.4819 0.617215 20.8691C0.629857 21.517 0.877294 22.1348 1.30788 22.5932C2.59818 23.9659 4.69007 23.9659 5.98037 22.5932C6.85657 21.6662 7.34782 20.4048 7.34443 19.0901V16.2753C7.34443 15.9129 7.06832 15.6191 6.72777 15.6191Z" fill="#144FA3"/>
<path d="M11.1002 16.403C10.7596 16.403 10.4835 16.6967 10.4835 17.0591V19.2525C10.4893 21.4563 9.66612 23.5709 8.19753 25.1249C7.95256 25.3767 7.94578 25.7921 8.18242 26.0527C8.41907 26.3134 8.80942 26.3206 9.05439 26.0688C9.05955 26.0635 9.06456 26.0581 9.0695 26.0527C10.7702 24.2533 11.7236 21.8045 11.7168 19.2525V17.0591C11.7168 16.6967 11.4407 16.403 11.1002 16.403Z" fill="#144FA3"/>
<path d="M15.4165 19.684C15.0759 19.684 14.7998 19.9777 14.7998 20.3401V26.9014C14.7998 27.2638 15.0759 27.5576 15.4165 27.5576C15.757 27.5576 16.0331 27.2638 16.0331 26.9014V20.3401C16.0331 19.9777 15.757 19.684 15.4165 19.684Z" fill="#144FA3"/>
<path d="M15.4165 15.7474C15.0759 15.7474 14.7998 16.0412 14.7998 16.4036V17.7158C14.7998 18.0782 15.0759 18.372 15.4165 18.372C15.757 18.372 16.0331 18.0782 16.0331 17.7158V16.4036C16.0331 16.0412 15.757 15.7474 15.4165 15.7474Z" fill="#144FA3"/>
<path d="M35.6854 19.0383C35.2557 18.5826 34.6776 18.3204 34.071 18.306C33.4298 18.2935 32.811 18.5579 32.3561 19.0389L32.3055 19.0921C32.0594 19.3425 32.0508 19.7579 32.2863 20.0197C32.5217 20.2816 32.912 20.2908 33.1581 20.0402C33.163 20.0352 33.1679 20.0302 33.1726 20.0251L33.2256 19.9693C33.4439 19.7403 33.7393 19.6139 34.0458 19.6183C34.6682 19.6312 35.1629 20.1787 35.1507 20.841C35.145 21.1511 35.0266 21.4468 34.8204 21.6661C34.001 22.4987 32.7112 22.4987 31.8918 21.6661C31.2477 20.9846 30.8866 20.0572 30.8891 19.0907V16.2753C30.8891 15.9129 30.613 15.6191 30.2724 15.6191C29.9319 15.6191 29.6558 15.9129 29.6558 16.2753V19.0881C29.6521 20.4026 30.1429 21.664 31.0186 22.5912C32.3089 23.9639 34.4008 23.9639 35.6911 22.5912C36.6116 21.6084 36.6091 20.0177 35.6854 19.0383Z" fill="#144FA3"/>
<path d="M28.8026 25.1249C27.334 23.5709 26.5108 21.4563 26.5166 19.2525V17.0591C26.5166 16.6967 26.2405 16.403 25.8999 16.403C25.5594 16.403 25.2832 16.6967 25.2832 17.0591V19.2525C25.2765 21.8045 26.2299 24.2533 27.9306 26.0527C28.1756 26.3045 28.5659 26.2973 28.8026 26.0366C29.0334 25.7824 29.0334 25.3792 28.8026 25.1249Z" fill="#144FA3"/>
<path d="M21.5835 19.684C21.2429 19.684 20.9668 19.9777 20.9668 20.3401V26.9014C20.9668 27.2638 21.2429 27.5576 21.5835 27.5576C21.924 27.5576 22.2001 27.2638 22.2001 26.9014V20.3401C22.2001 19.9777 21.924 19.684 21.5835 19.684Z" fill="#144FA3"/>
<path d="M21.5835 15.7474C21.2429 15.7474 20.9668 16.0412 20.9668 16.4036V17.7158C20.9668 18.0782 21.2429 18.372 21.5835 18.372C21.924 18.372 22.2001 18.0782 22.2001 17.7158V16.4036C22.2001 16.0412 21.924 15.7474 21.5835 15.7474Z" fill="#144FA3"/>
<path d="M33.3002 10.4979H3.70016C3.35961 10.4979 3.0835 10.7917 3.0835 11.1541C3.0835 11.5164 3.35961 11.8102 3.70016 11.8102H33.3002C33.6407 11.8102 33.9168 11.5164 33.9168 11.1541C33.9168 10.7917 33.6407 10.4979 33.3002 10.4979Z" fill="#144FA3"/>
<path d="M33.3002 7.87317H3.70016C3.35961 7.87317 3.0835 8.16695 3.0835 8.5293C3.0835 8.89165 3.35961 9.18544 3.70016 9.18544H33.3002C33.6407 9.18544 33.9168 8.89165 33.9168 8.5293C33.9168 8.16695 33.6407 7.87317 33.3002 7.87317Z" fill="#144FA3"/>
<path d="M32.6834 2.62439H30.2167C29.195 2.62439 28.3667 3.50566 28.3667 4.59279C28.3667 5.67992 29.195 6.56119 30.2167 6.56119H32.6834C33.7051 6.56119 34.5334 5.67992 34.5334 4.59279C34.5334 3.50566 33.7051 2.62439 32.6834 2.62439ZM32.6834 5.24892H30.2167C29.8761 5.24892 29.6 4.95514 29.6 4.59279C29.6 4.23044 29.8761 3.93666 30.2167 3.93666H32.6834C33.0239 3.93666 33.3 4.23044 33.3 4.59279C33.3 4.95514 33.0239 5.24892 32.6834 5.24892Z" fill="#144FA3"/>
<path d="M25.8998 3.93604H24.6665C24.3259 3.93604 24.0498 4.22982 24.0498 4.59217C24.0498 4.95452 24.3259 5.2483 24.6665 5.2483H25.8998C26.2404 5.2483 26.5165 4.95452 26.5165 4.59217C26.5165 4.22982 26.2404 3.93604 25.8998 3.93604Z" fill="#144FA3"/>
<path d="M22.2001 3.93604H20.9668C20.6262 3.93604 20.3501 4.22982 20.3501 4.59217C20.3501 4.95452 20.6262 5.2483 20.9668 5.2483H22.2001C22.5407 5.2483 22.8168 4.95452 22.8168 4.59217C22.8168 4.22982 22.5407 3.93604 22.2001 3.93604Z" fill="#144FA3"/>
</svg>
