<svg width="40" height="40" viewBox="0 0 40 40" fill="none" xmlns="http://www.w3.org/2000/svg">
<g clip-path="url(#clip0_1478_8062)">
<path d="M20 40.0001C31.0458 40.0001 40.0001 31.0458 40.0001 20C40.0001 8.95432 31.0458 0 20 0C8.95432 0 0 8.95432 0 20C0 31.0458 8.95432 40.0001 20 40.0001Z" fill="#00AF85"/>
<path d="M40.0001 19.9999C40.0001 31 31.0001 40 20 40C13.6251 40 8.00005 37.125 4.375 32.5C7.75 35.25 12.125 36.875 16.875 36.875C27.875 36.875 36.875 27.875 36.875 16.875C36.875 12.125 35.25 7.75 32.5 4.375C37.1251 7.99987 40.0001 13.6249 40.0001 19.9999Z" fill="#00AF85"/>
<path d="M30.8749 14.2499L17.8749 28.5C16.9999 29.5 15.5 29.5 14.6249 28.5L9.12491 22.375C8.37494 21.4999 8.37494 20.125 9.24989 19.2499C10.1249 18.5 11.4999 18.5 12.3749 19.3749L16.2499 23.7499L27.6249 11.3749C28.5 10.4999 29.8749 10.3749 30.75 11.25C31.6249 11.9999 31.6249 13.5 30.8749 14.2499Z" fill="white"/>
</g>
<defs>
<clipPath id="clip0_1478_8062">
<rect width="40" height="40" fill="white"/>
</clipPath>
</defs>
</svg>
