<svg width="45" height="45" viewBox="0 0 45 45" fill="none" xmlns="http://www.w3.org/2000/svg">
<circle cx="22.5" cy="22.5" r="22.5" fill="#F5F9FD"/>
<path d="M32.6496 13H12.3504C11.0529 13.0015 10.0014 14.1431 10 15.5519V20.4005C10.0014 21.8093 11.0529 22.9509 12.3504 22.9524H32.6496C33.9471 22.9509 34.9986 21.8093 35 20.4005V15.5519C34.9986 14.1431 33.9471 13.0015 32.6496 13ZM34.1667 20.4005C34.1657 21.3098 33.4871 22.0466 32.6496 22.0476H12.3504C11.5129 22.0466 10.8343 21.3098 10.8333 20.4005V15.5519C10.8343 14.6426 11.5129 13.9058 12.3504 13.9048H32.6496C33.4871 13.9058 34.1657 14.6426 34.1667 15.5519V20.4005Z" fill="#144FA3"/>
<path d="M14.5458 23.769C14.3157 23.769 14.1292 23.9716 14.1292 24.2214V26.1608C14.1308 26.8271 13.8869 27.4665 13.4517 27.9364C12.898 28.5104 12.0266 28.5104 11.4729 27.9364C11.1762 27.6126 11.1774 27.0891 11.4755 26.7669C11.6142 26.6171 11.8006 26.5309 11.9963 26.5263C12.2042 26.5231 12.4045 26.611 12.5521 26.7701L12.5863 26.8068C12.7525 26.9795 13.0163 26.9732 13.1754 26.7926C13.3308 26.6163 13.3293 26.3379 13.1721 26.1635L13.1396 26.1287C12.8422 25.8029 12.437 25.6201 12.0146 25.6211H11.9792C11.0982 25.6409 10.3989 26.4323 10.4171 27.3887C10.4256 27.8354 10.5928 28.2614 10.8838 28.5774C11.7556 29.5238 13.169 29.5238 14.0408 28.5774C14.6329 27.9383 14.9648 27.0686 14.9625 26.1621V24.2214C14.9625 23.9716 14.776 23.769 14.5458 23.769Z" fill="#144FA3"/>
<path d="M17.5001 24.3091C17.27 24.3091 17.0834 24.5116 17.0834 24.7615V26.2738C17.0873 27.7932 16.5311 29.2511 15.5388 30.3226C15.3733 30.4962 15.3687 30.7825 15.5286 30.9622C15.6885 31.142 15.9523 31.1469 16.1178 30.9733C16.1213 30.9697 16.1247 30.966 16.128 30.9622C17.2771 29.7216 17.9213 28.0333 17.9167 26.2738V24.7615C17.9167 24.5116 17.7302 24.3091 17.5001 24.3091Z" fill="#144FA3"/>
<path d="M20.4167 26.5713C20.1866 26.5713 20 26.7738 20 27.0237V31.5475C20 31.7973 20.1866 31.9999 20.4167 31.9999C20.6468 31.9999 20.8333 31.7973 20.8333 31.5475V27.0237C20.8333 26.7738 20.6468 26.5713 20.4167 26.5713Z" fill="#144FA3"/>
<path d="M20.4167 23.8574C20.1866 23.8574 20 24.06 20 24.3098V25.2146C20 25.4644 20.1866 25.6669 20.4167 25.6669C20.6468 25.6669 20.8333 25.4644 20.8333 25.2146V24.3098C20.8333 24.06 20.6468 23.8574 20.4167 23.8574Z" fill="#144FA3"/>
<path d="M34.1117 26.1264C33.8213 25.8122 33.4307 25.6314 33.0209 25.6215C32.5876 25.6129 32.1695 25.7952 31.8621 26.1269L31.828 26.1635C31.6617 26.3362 31.6559 26.6225 31.815 26.8031C31.974 26.9837 32.2378 26.99 32.4041 26.8172C32.4074 26.8138 32.4106 26.8103 32.4138 26.8068L32.4496 26.7683C32.5971 26.6104 32.7967 26.5233 33.0038 26.5263C33.4244 26.5352 33.7587 26.9127 33.7504 27.3693C33.7466 27.5831 33.6666 27.787 33.5272 27.9382C32.9735 28.5123 32.1021 28.5123 31.5484 27.9382C31.1132 27.4683 30.8693 26.8289 30.8709 26.1626V24.2214C30.8709 23.9716 30.6844 23.769 30.4543 23.769C30.2242 23.769 30.0376 23.9716 30.0376 24.2214V26.1608C30.0351 27.0671 30.3667 27.9368 30.9584 28.576C31.8303 29.5225 33.2437 29.5225 34.1155 28.576C34.7375 27.8984 34.7358 26.8017 34.1117 26.1264Z" fill="#144FA3"/>
<path d="M29.4614 30.3226C28.4691 29.2511 27.9129 27.7932 27.9169 26.2738V24.7615C27.9169 24.5116 27.7303 24.3091 27.5002 24.3091C27.2701 24.3091 27.0835 24.5116 27.0835 24.7615V26.2738C27.079 28.0333 27.7232 29.7216 28.8723 30.9622C29.0378 31.1358 29.3015 31.1309 29.4614 30.9512C29.6174 30.7759 29.6174 30.4979 29.4614 30.3226Z" fill="#144FA3"/>
<path d="M24.5832 26.5713C24.3531 26.5713 24.1665 26.7738 24.1665 27.0237V31.5475C24.1665 31.7973 24.3531 31.9999 24.5832 31.9999C24.8133 31.9999 24.9998 31.7973 24.9998 31.5475V27.0237C24.9998 26.7738 24.8133 26.5713 24.5832 26.5713Z" fill="#144FA3"/>
<path d="M24.5832 23.8574C24.3531 23.8574 24.1665 24.06 24.1665 24.3098V25.2146C24.1665 25.4644 24.3531 25.6669 24.5832 25.6669C24.8133 25.6669 24.9998 25.4644 24.9998 25.2146V24.3098C24.9998 24.06 24.8133 23.8574 24.5832 23.8574Z" fill="#144FA3"/>
<path d="M32.5002 20.2383H12.5002C12.2701 20.2383 12.0835 20.4408 12.0835 20.6907C12.0835 20.9405 12.2701 21.143 12.5002 21.143H32.5002C32.7303 21.143 32.9168 20.9405 32.9168 20.6907C32.9168 20.4408 32.7303 20.2383 32.5002 20.2383Z" fill="#144FA3"/>
<path d="M32.5002 18.4282H12.5002C12.2701 18.4282 12.0835 18.6308 12.0835 18.8806C12.0835 19.1304 12.2701 19.333 12.5002 19.333H32.5002C32.7303 19.333 32.9168 19.1304 32.9168 18.8806C32.9168 18.6308 32.7303 18.4282 32.5002 18.4282Z" fill="#144FA3"/>
<path d="M32.0834 14.8096H30.4167C29.7264 14.8096 29.1667 15.4172 29.1667 16.1667C29.1667 16.9163 29.7264 17.5239 30.4167 17.5239H32.0834C32.7738 17.5239 33.3334 16.9163 33.3334 16.1667C33.3334 15.4172 32.7738 14.8096 32.0834 14.8096ZM32.0834 16.6191H30.4167C30.1866 16.6191 30.0001 16.4165 30.0001 16.1667C30.0001 15.9169 30.1866 15.7143 30.4167 15.7143H32.0834C32.3135 15.7143 32.5001 15.9169 32.5001 16.1667C32.5001 16.4165 32.3135 16.6191 32.0834 16.6191Z" fill="#144FA3"/>
<path d="M27.5 15.7139H26.6667C26.4366 15.7139 26.25 15.9164 26.25 16.1662C26.25 16.4161 26.4366 16.6186 26.6667 16.6186H27.5C27.7301 16.6186 27.9167 16.4161 27.9167 16.1662C27.9167 15.9164 27.7301 15.7139 27.5 15.7139Z" fill="#144FA3"/>
<path d="M25 15.7139H24.1667C23.9366 15.7139 23.75 15.9164 23.75 16.1662C23.75 16.4161 23.9366 16.6186 24.1667 16.6186H25C25.2301 16.6186 25.4167 16.4161 25.4167 16.1662C25.4167 15.9164 25.2301 15.7139 25 15.7139Z" fill="#144FA3"/>
</svg>
