<svg width="70" height="8" viewBox="0 0 70 8" fill="none" xmlns="http://www.w3.org/2000/svg">
<path d="M0.896447 3.39645C0.701184 3.59171 0.701184 3.90829 0.896447 4.10355L4.07843 7.28553C4.27369 7.4808 4.59027 7.4808 4.78553 7.28553C4.9808 7.09027 4.9808 6.77369 4.78553 6.57843L1.95711 3.75L4.78553 0.921573C4.9808 0.726311 4.9808 0.409728 4.78553 0.214466C4.59027 0.0192039 4.27369 0.0192039 4.07843 0.214466L0.896447 3.39645ZM68.75 4.25C69.0261 4.25 69.25 4.02614 69.25 3.75C69.25 3.47386 69.0261 3.25 68.75 3.25V4.25ZM1.25 4.25H68.75V3.25H1.25V4.25Z" fill="#C4C4C4" fill-opacity="0.6"/>
</svg>
