<svg width="20" height="20" viewBox="0 0 20 20" fill="none" xmlns="http://www.w3.org/2000/svg">
<path d="M1.66675 18.3335H18.3334" stroke="#061962" stroke-linecap="round" stroke-linejoin="round"/>
<path d="M14.6333 8.3335C16.1666 8.3335 17.4083 9.45016 17.4083 10.8335V18.3335" stroke="#061962" stroke-linecap="round" stroke-linejoin="round"/>
<path d="M2.59155 18.3335V10.8335C2.59155 9.45016 3.83322 8.3335 5.36655 8.3335H11.0832" stroke="#061962" stroke-linecap="round" stroke-linejoin="round"/>
<path d="M4.6333 8.33317V5.97484C4.6333 4.97484 5.5333 4.1665 6.64997 4.1665H13.3583C14.4666 4.1665 15.3666 4.97484 15.3666 5.97484V8.33317" stroke="#061962" stroke-linecap="round" stroke-linejoin="round"/>
<path d="M17.0582 11.6665H16.6832C16.0666 11.6665 15.5582 12.1665 15.5582 12.7915V13.0498C15.5582 13.6665 15.0582 14.1748 14.4332 14.1748C13.8166 14.1748 13.3082 13.6748 13.3082 13.0498V12.7915C13.3082 12.1748 12.8082 11.6665 12.1832 11.6665C11.5666 11.6665 11.0582 12.1665 11.0582 12.7915V13.0498C11.0582 13.6665 10.5582 14.1748 9.93322 14.1748C9.31655 14.1748 8.80822 13.6748 8.80822 13.0498V12.7915C8.83322 12.1665 8.33322 11.6665 7.71655 11.6665C7.09989 11.6665 6.59155 12.1665 6.59155 12.7915" stroke="#061962" stroke-linecap="round" stroke-linejoin="round"/>
<path d="M2.94165 11.6499L3.24998 11.6582C3.86665 11.6666 4.35832 12.1666 4.35832 12.7832V13.0582C4.35832 13.6749 4.85832 14.1832 5.48332 14.1832" stroke="#061962" stroke-linecap="round" stroke-linejoin="round"/>
<path d="M6.66675 4.16667V2.5" stroke="#061962" stroke-linecap="round" stroke-linejoin="round"/>
<path d="M13.3333 4.16667V2.5" stroke="#061962" stroke-linecap="round" stroke-linejoin="round"/>
<path d="M10 4.1665V1.6665" stroke="#061962" stroke-linecap="round" stroke-linejoin="round"/>
</svg>
