<svg width="25" height="19" viewBox="0 0 25 19" fill="none" xmlns="http://www.w3.org/2000/svg">
<path d="M22.6496 0H2.35042C1.05286 0.00147024 0.00135417 1.14311 0 2.55188V7.4005C0.00135417 8.80927 1.05286 9.95091 2.35042 9.95238H22.6496C23.9471 9.95091 24.9986 8.80927 25 7.4005V2.55188C24.9986 1.14311 23.9471 0.00147024 22.6496 0ZM24.1667 7.4005C24.1657 8.30979 23.4871 9.0466 22.6496 9.04762H2.35042C1.51292 9.0466 0.834271 8.30979 0.833333 7.4005V2.55188C0.834271 1.6426 1.51292 0.90578 2.35042 0.904762H22.6496C23.4871 0.90578 24.1657 1.6426 24.1667 2.55188V7.4005Z" fill="#144FA3"/>
<path d="M4.54585 10.769C4.31574 10.769 4.12918 10.9716 4.12918 11.2214V13.1608C4.13085 13.8271 3.88689 14.4665 3.45168 14.9364C2.89803 15.5104 2.02658 15.5104 1.47293 14.9364C1.17621 14.6126 1.17741 14.0891 1.47553 13.7669C1.61418 13.6171 1.80064 13.5309 1.99626 13.5263C2.20418 13.5231 2.40454 13.611 2.5521 13.7701L2.58626 13.8068C2.75251 13.9795 3.01626 13.9732 3.17538 13.7926C3.33079 13.6163 3.32934 13.3379 3.1721 13.1635L3.1396 13.1287C2.8422 12.8029 2.43704 12.6201 2.0146 12.6211H1.97918C1.09824 12.6409 0.398867 13.4323 0.417096 14.3887C0.425638 14.8354 0.592826 15.2614 0.883763 15.5774C1.75559 16.5238 3.16902 16.5238 4.04085 15.5774C4.63288 14.9383 4.9648 14.0686 4.96251 13.1621V11.2214C4.96251 10.9716 4.77595 10.769 4.54585 10.769Z" fill="#144FA3"/>
<path d="M7.50007 11.3091C7.26997 11.3091 7.0834 11.5116 7.0834 11.7615V13.2738C7.08731 14.7932 6.53111 16.2511 5.53882 17.3226C5.3733 17.4962 5.36872 17.7825 5.52861 17.9622C5.68851 18.142 5.95226 18.1469 6.11778 17.9733C6.12127 17.9697 6.12465 17.966 6.12799 17.9622C7.2771 16.7216 7.92127 15.0333 7.91674 13.2738V11.7615C7.91674 11.5116 7.73017 11.3091 7.50007 11.3091Z" fill="#144FA3"/>
<path d="M10.4167 13.5713C10.1866 13.5713 10 13.7738 10 14.0237V18.5475C10 18.7973 10.1866 18.9999 10.4167 18.9999C10.6468 18.9999 10.8333 18.7973 10.8333 18.5475V14.0237C10.8333 13.7738 10.6468 13.5713 10.4167 13.5713Z" fill="#144FA3"/>
<path d="M10.4167 10.8574C10.1866 10.8574 10 11.06 10 11.3098V12.2146C10 12.4644 10.1866 12.6669 10.4167 12.6669C10.6468 12.6669 10.8333 12.4644 10.8333 12.2146V11.3098C10.8333 11.06 10.6468 10.8574 10.4167 10.8574Z" fill="#144FA3"/>
<path d="M24.1117 13.1264C23.8213 12.8122 23.4307 12.6314 23.0209 12.6215C22.5876 12.6129 22.1695 12.7952 21.8621 13.1269L21.828 13.1635C21.6617 13.3362 21.6559 13.6225 21.815 13.8031C21.974 13.9837 22.2378 13.99 22.4041 13.8172C22.4074 13.8138 22.4106 13.8103 22.4138 13.8068L22.4496 13.7683C22.5971 13.6104 22.7967 13.5233 23.0038 13.5263C23.4244 13.5352 23.7587 13.9127 23.7504 14.3693C23.7466 14.5831 23.6666 14.787 23.5272 14.9382C22.9735 15.5123 22.1021 15.5123 21.5484 14.9382C21.1132 14.4683 20.8693 13.8289 20.8709 13.1626V11.2214C20.8709 10.9716 20.6844 10.769 20.4543 10.769C20.2242 10.769 20.0376 10.9716 20.0376 11.2214V13.1608C20.0351 14.0671 20.3667 14.9368 20.9584 15.576C21.8303 16.5225 23.2437 16.5225 24.1155 15.576C24.7375 14.8984 24.7358 13.8017 24.1117 13.1264Z" fill="#144FA3"/>
<path d="M19.4614 17.3226C18.4691 16.2511 17.9129 14.7932 17.9169 13.2738V11.7615C17.9169 11.5116 17.7303 11.3091 17.5002 11.3091C17.2701 11.3091 17.0835 11.5116 17.0835 11.7615V13.2738C17.079 15.0333 17.7232 16.7216 18.8723 17.9622C19.0378 18.1358 19.3015 18.1309 19.4614 17.9512C19.6174 17.7759 19.6174 17.4979 19.4614 17.3226Z" fill="#144FA3"/>
<path d="M14.5832 13.5713C14.3531 13.5713 14.1665 13.7738 14.1665 14.0237V18.5475C14.1665 18.7973 14.3531 18.9999 14.5832 18.9999C14.8133 18.9999 14.9998 18.7973 14.9998 18.5475V14.0237C14.9998 13.7738 14.8133 13.5713 14.5832 13.5713Z" fill="#144FA3"/>
<path d="M14.5832 10.8574C14.3531 10.8574 14.1665 11.06 14.1665 11.3098V12.2146C14.1665 12.4644 14.3531 12.6669 14.5832 12.6669C14.8133 12.6669 14.9998 12.4644 14.9998 12.2146V11.3098C14.9998 11.06 14.8133 10.8574 14.5832 10.8574Z" fill="#144FA3"/>
<path d="M22.5002 7.23828H2.50016C2.27006 7.23828 2.0835 7.44083 2.0835 7.69066C2.0835 7.94049 2.27006 8.14304 2.50016 8.14304H22.5002C22.7303 8.14304 22.9168 7.94049 22.9168 7.69066C22.9168 7.44083 22.7303 7.23828 22.5002 7.23828Z" fill="#144FA3"/>
<path d="M22.5002 5.42822H2.50016C2.27006 5.42822 2.0835 5.63078 2.0835 5.8806C2.0835 6.13043 2.27006 6.33298 2.50016 6.33298H22.5002C22.7303 6.33298 22.9168 6.13043 22.9168 5.8806C22.9168 5.63078 22.7303 5.42822 22.5002 5.42822Z" fill="#144FA3"/>
<path d="M22.0834 1.80957H20.4167C19.7264 1.80957 19.1667 2.41717 19.1667 3.16671C19.1667 3.91625 19.7264 4.52386 20.4167 4.52386H22.0834C22.7738 4.52386 23.3334 3.91625 23.3334 3.16671C23.3334 2.41717 22.7738 1.80957 22.0834 1.80957ZM22.0834 3.61909H20.4167C20.1866 3.61909 20.0001 3.41654 20.0001 3.16671C20.0001 2.91689 20.1866 2.71433 20.4167 2.71433H22.0834C22.3135 2.71433 22.5001 2.91689 22.5001 3.16671C22.5001 3.41654 22.3135 3.61909 22.0834 3.61909Z" fill="#144FA3"/>
<path d="M17.5 2.71387H16.6667C16.4366 2.71387 16.25 2.91642 16.25 3.16625C16.25 3.41608 16.4366 3.61863 16.6667 3.61863H17.5C17.7301 3.61863 17.9167 3.41608 17.9167 3.16625C17.9167 2.91642 17.7301 2.71387 17.5 2.71387Z" fill="#144FA3"/>
<path d="M15 2.71387H14.1667C13.9366 2.71387 13.75 2.91642 13.75 3.16625C13.75 3.41608 13.9366 3.61863 14.1667 3.61863H15C15.2301 3.61863 15.4167 3.41608 15.4167 3.16625C15.4167 2.91642 15.2301 2.71387 15 2.71387Z" fill="#144FA3"/>
</svg>
