<svg width="20" height="20" viewBox="0 0 20 20" fill="none" xmlns="http://www.w3.org/2000/svg">
<path d="M10 1.99992C14.4111 1.99992 18.0001 5.58894 18.0001 9.99996C18.0001 14.411 14.4111 18 10 18C5.58902 18 2 14.411 2 9.99996C2 5.58894 5.58902 1.99992 10 1.99992ZM9.50004 16.9745V15.5C9.50004 15.224 9.72404 15 10 15C10.276 15 10.5 15.224 10.5 15.5V16.9745C14.1266 16.7165 17.0001 13.691 17.0001 9.99996C17.0001 6.30894 14.1266 3.28343 10.5 3.02542V4.49993C10.5 4.77593 10.276 4.99994 10 4.99994C9.72404 4.99994 9.50004 4.77593 9.50004 4.49993V3.02542C5.87352 3.28343 3.00001 6.30894 3.00001 9.99996C3.00001 13.691 5.87352 16.7165 9.50004 16.9745Z" fill="#061962"/>
<path d="M15.2031 2.65735C13.6771 1.57284 11.8776 0.999842 10 0.999842C5.03753 0.999842 1.00001 5.03736 1.00001 9.99989C1.00001 11.8804 1.57501 13.6819 2.66251 15.2099C2.82251 15.4349 2.77001 15.7474 2.54501 15.9074C2.31951 16.0679 2.00751 16.0149 1.84751 15.7899C0.639003 14.0914 0 12.0894 0 9.99989C0 4.48586 4.48602 -0.000164032 10 -0.000164032C12.0861 -0.000164032 14.0856 0.636841 15.7821 1.84235C16.0071 2.00235 16.0601 2.31435 15.9001 2.53985C15.7401 2.76435 15.4286 2.81685 15.2031 2.65735Z" fill="#061962"/>
<path d="M10.0001 20C7.91063 20 5.90862 19.361 4.21011 18.1525C3.98511 17.9925 3.93261 17.68 4.09261 17.455C4.25311 17.23 4.56461 17.1775 4.79011 17.3375C6.31812 18.425 8.11963 19 10.0001 19C14.9627 19 19.0002 14.9625 19.0002 9.99995C19.0002 8.12244 18.4272 6.32343 17.3427 4.79693C17.1827 4.57193 17.2357 4.25942 17.4607 4.09942C17.5487 4.03692 17.6497 4.00692 17.7497 4.00692C17.9062 4.00692 18.0602 4.07992 18.1577 4.21742C19.3632 5.91443 20.0002 7.91394 20.0002 9.99995C20.0002 15.514 15.5142 20 10.0001 20Z" fill="#061962"/>
<path d="M3.28565 16.2146C3.56179 16.2146 3.78565 16.4385 3.78565 16.7146C3.78565 16.9907 3.56179 17.2146 3.28565 17.2146C3.0095 17.2146 2.78564 16.9907 2.78564 16.7146C2.78564 16.4385 3.0095 16.2146 3.28565 16.2146Z" fill="#061962"/>
<path d="M16.7183 2.78149C16.9944 2.78149 17.2183 3.00535 17.2183 3.28149C17.2183 3.55764 16.9944 3.78149 16.7183 3.78149C16.4421 3.78149 16.2183 3.55764 16.2183 3.28149C16.2183 3.00535 16.4421 2.78149 16.7183 2.78149Z" fill="#061962"/>
<path d="M6.25001 8.24998C7.21501 8.24998 8.00002 9.03499 8.00002 9.99999C8.00002 10.965 7.21501 11.75 6.25001 11.75C5.285 11.75 4.5 10.965 4.5 9.99999C4.5 9.03499 5.285 8.24998 6.25001 8.24998ZM6.25001 10.75C6.66351 10.75 7.00001 10.4135 7.00001 9.99999C7.00001 9.58649 6.66351 9.24999 6.25001 9.24999C5.83651 9.24999 5.5 9.58649 5.5 9.99999C5.5 10.4135 5.83651 10.75 6.25001 10.75Z" fill="#061962"/>
<path d="M13.75 8.24998C14.715 8.24998 15.5 9.03499 15.5 9.99999C15.5 10.965 14.715 11.75 13.75 11.75C12.785 11.75 12 10.965 12 9.99999C12 9.03499 12.785 8.24998 13.75 8.24998ZM13.75 10.75C14.1635 10.75 14.5 10.4135 14.5 9.99999C14.5 9.58649 14.1635 9.24999 13.75 9.24999C13.3365 9.24999 13 9.58649 13 9.99999C13 10.4135 13.3365 10.75 13.75 10.75Z" fill="#061962"/>
</svg>
