<svg width="20" height="20" viewBox="0 0 20 20" fill="none" xmlns="http://www.w3.org/2000/svg">
<path d="M13.6834 6.62501C15.7168 8.65834 15.7168 11.9583 13.6834 13.9916C11.6501 16.025 8.35008 16.025 6.31675 13.9916C4.28341 11.9583 4.28341 8.65834 6.31675 6.62501C7.45841 5.48334 9.00843 4.98335 10.5001 5.12502" stroke="#061962" stroke-linecap="round" stroke-linejoin="round"/>
<path d="M6.875 18.0332C5.20833 17.3666 3.74999 16.1582 2.78333 14.4832C1.83333 12.8416 1.51666 11.0166 1.74166 9.2749" stroke="#061962" stroke-linecap="round" stroke-linejoin="round"/>
<path d="M4.875 3.73346C6.29167 2.62513 8.06666 1.9668 10 1.9668C11.8917 1.9668 13.6333 2.60845 15.0333 3.67512" stroke="#061962" stroke-linecap="round" stroke-linejoin="round"/>
<path d="M13.125 18.0332C14.7917 17.3666 16.25 16.1582 17.2167 14.4832C18.1667 12.8416 18.4833 11.0166 18.2583 9.2749" stroke="#061962" stroke-linecap="round" stroke-linejoin="round"/>
</svg>
