<svg width="20" height="20" viewBox="0 0 20 20" fill="none" xmlns="http://www.w3.org/2000/svg">
<path d="M12.5 10C12.5 8.61667 11.3833 7.5 10 7.5C8.61667 7.5 7.5 8.61667 7.5 10C7.5 11.3833 8.61667 12.5 10 12.5C10.3417 12.5 10.675 12.4333 10.975 12.3" stroke="#061962" stroke-miterlimit="10" stroke-linecap="round" stroke-linejoin="round"/>
<path d="M5.7334 17.1499L6.64173 17.6749C7.30006 18.0666 8.15006 17.8333 8.54173 17.1749L8.6334 17.0166C9.3834 15.7083 10.6167 15.7083 11.3751 17.0166L11.4667 17.1749C11.8584 17.8333 12.7084 18.0666 13.3667 17.6749L14.8084 16.8499C15.5667 16.4166 15.8251 15.4416 15.3917 14.6916C14.6334 13.3833 15.2501 12.3166 16.7584 12.3166C17.6251 12.3166 18.3417 11.6083 18.3417 10.7333V9.2666C18.3417 8.39993 17.6334 7.68327 16.7584 7.68327C15.9167 7.68327 15.3501 7.34993 15.1501 6.82493C14.9917 6.4166 15.0584 5.88327 15.3917 5.30827C15.8251 4.54993 15.5667 3.58327 14.8084 3.14993L14.1334 2.7666" stroke="#061962" stroke-miterlimit="10" stroke-linecap="round" stroke-linejoin="round"/>
<path d="M11.3665 2.98336C10.6165 4.29169 9.38317 4.29169 8.62484 2.98336L8.53317 2.82503C8.14984 2.1667 7.29984 1.93336 6.6415 2.32503L5.19984 3.15003C4.4415 3.58336 4.18317 4.55836 4.6165 5.31669C5.37484 6.61669 4.75817 7.68336 3.24984 7.68336C2.38317 7.68336 1.6665 8.39169 1.6665 9.26669V10.7334C1.6665 11.6 2.37484 12.3167 3.24984 12.3167C4.75817 12.3167 5.37484 13.3834 4.6165 14.6917" stroke="#061962" stroke-miterlimit="10" stroke-linecap="round" stroke-linejoin="round"/>
</svg>
