<svg width="25" height="19" viewBox="0 0 25 19" fill="none" xmlns="http://www.w3.org/2000/svg">
<path d="M10.4248 4.38846C10.6271 4.38846 10.791 4.22411 10.791 4.02138C10.791 3.81864 10.6271 3.6543 10.4248 3.6543C10.2226 3.6543 10.0586 3.81864 10.0586 4.02138C10.0586 4.22411 10.2226 4.38846 10.4248 4.38846Z" fill="#144FA3"/>
<path d="M9.04126 4.38846C9.24351 4.38846 9.40747 4.22411 9.40747 4.02138C9.40747 3.81864 9.24351 3.6543 9.04126 3.6543C8.83901 3.6543 8.67505 3.81864 8.67505 4.02138C8.67505 4.22411 8.83901 4.38846 9.04126 4.38846Z" fill="#144FA3"/>
<path d="M4.65796 4.38846C4.86021 4.38846 5.02417 4.22411 5.02417 4.02138C5.02417 3.81864 4.86021 3.6543 4.65796 3.6543C4.45571 3.6543 4.29175 3.81864 4.29175 4.02138C4.29175 4.22411 4.45571 4.38846 4.65796 4.38846Z" fill="#144FA3"/>
<path d="M3.27466 4.38846C3.47691 4.38846 3.64087 4.22411 3.64087 4.02138C3.64087 3.81864 3.47691 3.6543 3.27466 3.6543C3.07241 3.6543 2.90845 3.81864 2.90845 4.02138C2.90845 4.22411 3.07241 4.38846 3.27466 4.38846Z" fill="#144FA3"/>
<path d="M14.792 4.38846C14.9942 4.38846 15.1582 4.22411 15.1582 4.02138C15.1582 3.81864 14.9942 3.6543 14.792 3.6543C14.5897 3.6543 14.4258 3.81864 14.4258 4.02138C14.4258 4.22411 14.5897 4.38846 14.792 4.38846Z" fill="#144FA3"/>
<path d="M16.1755 4.38846C16.3778 4.38846 16.5417 4.22411 16.5417 4.02138C16.5417 3.81864 16.3778 3.6543 16.1755 3.6543C15.9733 3.6543 15.8093 3.81864 15.8093 4.02138C15.8093 4.22411 15.9733 4.38846 16.1755 4.38846Z" fill="#144FA3"/>
<path d="M20.0685 2.87576H19.4826V0.856522C19.4826 0.38426 19.0992 0 18.6281 0H5.75674C5.55449 0 5.39053 0.164354 5.39053 0.367081C5.39053 0.569807 5.55449 0.734161 5.75674 0.734161H18.6281C18.6954 0.734161 18.7501 0.789077 18.7501 0.856522V7.18661C18.7501 7.25405 18.6954 7.30897 18.6281 7.30897H14.1399C13.9377 7.30897 13.7737 7.47332 13.7737 7.67605C13.7737 7.87878 13.9377 8.04313 14.1399 8.04313H18.6281C19.0992 8.04313 19.4826 7.65887 19.4826 7.18661V5.17613H20.0685C21.5224 5.17613 22.7052 6.36175 22.7052 7.81906C22.7052 9.27642 21.5224 10.462 20.0685 10.462L5.4563 10.4628C3.39492 10.4629 1.71772 12.1441 1.71753 14.2104C1.71748 15.2115 2.1063 16.1527 2.81245 16.8606C3.5186 17.5685 4.45752 17.9585 5.4562 17.9585L10.1905 17.9591V18.2805C10.1905 18.6772 10.5125 19 10.9083 19H12.976C13.5679 19 14.0711 18.6139 14.2492 18.0799H15.5146C15.7169 18.0799 15.8809 17.9155 15.8809 17.7128C15.8809 17.51 15.7169 17.3457 15.5146 17.3457H14.3184V16.2722H15.5146C15.7169 16.2722 15.8809 16.1078 15.8809 15.9051C15.8809 15.7024 15.7169 15.538 15.5146 15.538H14.2492C14.0711 15.004 13.5679 14.6179 12.976 14.6179H10.9083C10.5125 14.6179 10.1905 14.9406 10.1905 15.3373V15.6587H5.45698C4.66035 15.6587 4.01226 15.0091 4.01226 14.2106C4.01226 13.4121 4.66035 12.7624 5.45698 12.7624H20.0685C22.7878 12.7624 25.0001 10.5448 25.0001 7.81902C25.0001 5.09337 22.7878 2.87576 20.0685 2.87576ZM10.9229 15.3521H12.9759C13.3123 15.3521 13.5859 15.6264 13.5859 15.9636V17.6545C13.5859 17.9917 13.3123 18.266 12.9759 18.266H10.9229V15.3521ZM20.0685 12.0283H5.45693C4.25645 12.0283 3.27979 13.0073 3.27979 14.2107C3.27979 15.414 4.25645 16.393 5.45693 16.393H10.1905V17.225L5.45625 17.2245C4.65317 17.2244 3.89819 16.9109 3.33037 16.3416C2.76255 15.7724 2.44985 15.0155 2.44995 14.2105C2.45005 12.549 3.79873 11.1971 5.45635 11.197L20.0685 11.1963C20.9685 11.1963 21.8145 10.845 22.4508 10.2071C23.0872 9.56926 23.4376 8.7212 23.4376 7.81911C23.4376 5.95699 21.9263 4.44202 20.0685 4.44202H19.4826V3.60997H20.0685C22.3839 3.60997 24.2677 5.49818 24.2677 7.81911C24.2677 10.14 22.3839 12.0283 20.0685 12.0283Z" fill="#144FA3"/>
<path d="M13.0412 7.67605C13.0412 7.47332 12.8772 7.30897 12.675 7.30897H0.854492C0.787207 7.30897 0.732422 7.25405 0.732422 7.18661V0.856522C0.732422 0.789077 0.787207 0.734161 0.854492 0.734161H4.29175C4.49399 0.734161 4.65796 0.569807 4.65796 0.367081C4.65796 0.164354 4.49399 0 4.29175 0H0.854492C0.38335 0 0 0.384211 0 0.856522V7.18661C0 7.65887 0.38335 8.04313 0.854492 8.04313H12.675C12.8772 8.04313 13.0412 7.87878 13.0412 7.67605Z" fill="#144FA3"/>
<path d="M12.2559 4.02209C12.2559 2.63222 11.1278 1.50146 9.74121 1.50146C8.35464 1.50146 7.22656 2.63222 7.22656 4.02209C7.22656 5.41195 8.35464 6.54271 9.74121 6.54271C11.1278 6.54271 12.2559 5.41195 12.2559 4.02209ZM7.95898 4.02209C7.95898 3.03704 8.7585 2.23563 9.74121 2.23563C10.7239 2.23563 11.5234 3.03704 11.5234 4.02209C11.5234 5.00713 10.7239 5.80855 9.74121 5.80855C8.7585 5.80855 7.95898 5.00713 7.95898 4.02209Z" fill="#144FA3"/>
<path d="M1.45972 4.02209C1.45972 5.41195 2.58779 6.54271 3.97437 6.54271C5.36094 6.54271 6.48901 5.41195 6.48901 4.02209C6.48901 2.63222 5.36094 1.50146 3.97437 1.50146C2.58779 1.50146 1.45972 2.63222 1.45972 4.02209ZM5.75659 4.02209C5.75659 5.00713 4.95708 5.80855 3.97437 5.80855C2.99165 5.80855 2.19214 5.00713 2.19214 4.02209C2.19214 3.03704 2.99165 2.23563 3.97437 2.23563C4.95708 2.23563 5.75659 3.03704 5.75659 4.02209Z" fill="#144FA3"/>
<path d="M15.4756 6.54271C16.8622 6.54271 17.9902 5.41195 17.9902 4.02209C17.9902 2.63222 16.8622 1.50146 15.4756 1.50146C14.089 1.50146 12.9609 2.63222 12.9609 4.02209C12.9609 5.41195 14.089 6.54271 15.4756 6.54271ZM15.4756 2.23563C16.4583 2.23563 17.2578 3.03704 17.2578 4.02209C17.2578 5.00713 16.4583 5.80855 15.4756 5.80855C14.4929 5.80855 13.6934 5.00713 13.6934 4.02209C13.6934 3.03704 14.4929 2.23563 15.4756 2.23563Z" fill="#144FA3"/>
</svg>
