<svg width="360" height="767" viewBox="0 0 360 767" fill="none" xmlns="http://www.w3.org/2000/svg">
<g clip-path="url(#clip0_216_176)">
<rect width="360" height="767" rx="15" fill="#F5F9FD"/>
<rect width="360" height="767" fill="url(#paint0_linear_216_176)"/>
<g opacity="0.17">
<path d="M-17.7753 275.56C-40.1421 266.185 -48.6372 243.204 -34.0184 230.085C-3.94166 203.089 119.879 216.425 125.705 234.724C131.444 252.752 28.8965 295.127 -17.7753 275.56Z" stroke="#144FA3" stroke-width="2" stroke-miterlimit="10"/>
<path d="M37.6461 335.605C88.736 353.519 174.521 225.973 139.111 195.861C117.34 177.345 64.6366 179.659 21.6574 185.744C-18.6904 191.455 -76.3425 214.81 -90.5661 253.597C-98.0974 274.189 -93.5765 303.526 -77.6257 313.8C-65.281 321.749 -48.6156 318.173 -44.9393 319.495C-27.413 312.217 -24.8411 309.389 -10.8775 307.682C7.37435 305.449 23.5958 330.679 37.6461 335.605Z" stroke="#144FA3" stroke-width="2" stroke-miterlimit="10"/>
<path d="M89.4831 398.338C148.819 388.855 213.299 202.558 148.933 159.685C107.941 132.38 36.4766 144.437 -13.3356 158.872C-59.0924 172.132 -135.283 216.382 -150.698 279.797C-159.659 316.645 -148.77 368.48 -117.573 383.474C-92.7048 395.422 -60.6626 385.148 -55.0208 384.357C-21.6738 366.399 -18.9774 357.263 5.85292 351.113C38.7289 342.98 64.6854 402.32 89.4831 398.338Z" stroke="#144FA3" stroke-width="2" stroke-miterlimit="10"/>
<path d="M137.563 460.653C203.077 443.172 248.319 178.878 154.997 123.098C94.7676 87.1011 4.52098 108.695 -52.0862 131.589C-103.295 152.294 -197.705 217.449 -214.587 305.585C-224.772 358.737 -207.776 432.958 -161.283 452.736C-123.924 468.635 -76.2126 452.319 -68.8707 448.808C-17.5425 424.244 -16.8928 404.726 18.842 394.133C66.3097 380.022 103.252 469.789 137.563 460.653Z" stroke="#144FA3" stroke-width="2" stroke-miterlimit="10"/>
<path d="M182.751 520.135C255.303 494.916 280.329 152.63 158.17 83.671C78.6219 39.1669 -30.3692 70.0591 -93.7227 101.461C-150.444 129.568 -262.954 215.623 -281.39 328.539C-292.722 397.947 -269.695 494.58 -207.901 519.175C-158.029 539.008 -95.0275 515.745 -85.6228 510.44C-19.4593 473.116 -17.7483 449.274 28.8802 434.313C90.9505 414.225 139.322 535.226 182.751 520.135Z" stroke="#144FA3" stroke-width="2" stroke-miterlimit="10"/>
<path d="M-256.549 584.824C-194.186 608.585 -115.932 578.408 -104.405 571.277C-23.585 521.273 -20.5963 493.209 36.9097 473.739C113.593 447.778 173.682 600.321 225.871 578.863C306.036 545.901 310.535 125.184 159.274 43.491C60.5759 -9.81318 -67.3709 30.6323 -137.433 70.5847C-199.655 106.061 -330.184 213.016 -350.217 350.734C-362.67 436.393 -333.655 555.449 -256.549 584.824Z" stroke="#144FA3" stroke-width="2" stroke-miterlimit="10"/>
<path d="M418.276 628.174C393.711 628.379 364.251 671.019 386.282 678.14C399.006 682.258 432.694 675.745 445.927 664.154C464.563 647.844 435.179 628.027 418.276 628.174Z" stroke="#144FA3" stroke-width="2" stroke-miterlimit="10"/>
<path d="M351.517 672.168C353.921 677.891 365.177 680.432 375.448 687.4C396.283 701.543 399.271 708.263 414.069 716.792C419.84 720.124 427.605 724.503 435.185 722.498C446.793 719.425 449.69 706.128 464.422 682.708C483.524 652.276 490.758 644.408 485.3 628.282C484.028 624.532 482.382 612.389 473.183 604.981C460.443 594.74 445.51 602.651 426.841 595.872C404.42 587.744 393.305 573.276 383.575 579.67C376.721 584.173 376.466 596.506 371.333 617.981C367.424 634.34 364.966 645.075 360.212 653.831C354.511 664.257 348.842 665.807 351.517 672.168Z" stroke="#144FA3" stroke-width="2" stroke-miterlimit="10"/>
<path d="M313.968 660.242C314.385 670.386 330.303 675.295 343.422 689.953C370.326 720.021 357.862 741.507 379.428 763.474C388.578 772.8 402.937 781.833 417.328 780.083C437.751 777.595 444.611 756.479 476.053 713.665C517.158 657.689 534.668 646.727 530.83 616.897C530.044 610.817 529.281 587.473 513.217 573.423C491.792 554.685 466.112 571.732 432.57 557.649C395.092 541.934 381.085 508.338 368.447 515.29C359.671 520.118 363.033 539.561 356.287 577.481C351.511 604.434 348.56 620.186 339.015 633.088C326.968 649.361 313.519 649.225 313.968 660.242Z" stroke="#144FA3" stroke-width="2" stroke-miterlimit="10"/>
<path d="M276.382 648.445C274.757 662.984 295.37 670.293 311.358 692.64C344.278 738.645 315.896 774.604 344.749 810.292C357.099 825.562 378.28 839.223 399.434 837.798C428.753 835.825 439.587 807.052 487.688 744.752C550.928 663.352 578.162 649.019 576.375 605.642C576.023 597.184 576.186 562.699 553.267 541.978C523.152 514.759 486.67 540.975 438.32 519.544C385.746 496.243 368.897 443.535 353.314 451.024C342.621 456.204 349.47 482.734 341.235 537.101C335.55 574.647 332.122 595.341 317.807 612.465C299.355 634.53 278.12 632.785 276.382 648.445Z" stroke="#144FA3" stroke-width="2" stroke-miterlimit="10"/>
<path d="M238.708 636.681C235.065 655.598 260.312 665.335 279.208 695.355C318.072 757.324 273.712 807.615 309.989 857.137C325.495 878.324 353.553 896.618 381.458 895.545C419.694 894.071 434.329 857.544 499.215 775.867C584.389 668.901 621.455 651.236 621.786 594.415C621.851 583.577 622.923 537.984 593.176 510.565C554.333 474.899 507.12 510.267 443.929 481.466C376.25 450.612 356.558 378.743 338.095 386.785C325.479 392.301 335.82 425.941 326.096 496.747C319.485 544.893 315.603 570.502 296.518 591.868C271.644 619.699 242.628 616.339 238.708 636.681Z" stroke="#144FA3" stroke-width="2" stroke-miterlimit="10"/>
<path d="M200.965 624.922C207.067 599.888 243.852 604.873 275.142 571.277C299.003 545.662 303.34 515.149 310.876 456.399C322.068 369.158 308.25 328.403 322.788 322.556C344.159 313.957 366.688 404.992 449.484 443.394C527.484 479.57 585.525 434.974 633.031 479.158C669.654 513.226 667.618 569.927 667.142 583.198C664.618 653.447 617.779 674.46 510.667 806.992C428.991 908.046 410.571 952.317 363.396 953.298C328.744 954.019 293.794 931.081 275.142 903.988C231.464 840.588 291.888 775.937 246.987 698.075C225.227 660.345 195.285 648.212 200.965 624.922Z" stroke="#144FA3" stroke-width="2" stroke-miterlimit="10"/>
<path d="M513.13 221.985C506.719 225.236 493.259 218.972 492.068 209.213C490.72 198.142 505.951 188.984 512.643 191.829C520.558 195.2 521.636 217.682 513.13 221.985Z" stroke="#144FA3" stroke-width="2" stroke-miterlimit="10"/>
<path d="M531.192 163.164C542.119 173.389 546.894 192.154 552.357 224.32C557.771 256.215 556.921 279.049 552.162 280.707C549.569 281.602 542.221 274.606 535.919 269.48C524.121 259.91 503.926 260.972 498.749 259.937C479.799 256.144 474.233 249.1 466.312 235.607C462.646 229.376 454.097 215.558 450.334 199.302C444.595 174.684 418.871 167.098 422.006 157.231C424.643 148.994 450.129 146.994 466.653 146.761C490.336 146.425 514.3 147.374 531.192 163.164Z" stroke="#144FA3" stroke-width="2" stroke-miterlimit="10"/>
<path d="M550.132 135.675C568.091 153.947 575.157 184.611 586.04 241.958C597.096 299.581 597.026 339.105 591.579 340.579C587.491 341.706 574.253 327.46 563.002 317.279C541.794 298.004 503.828 301.174 496.004 299.939C460.324 294.422 451.531 281.206 437.702 256.226C431.942 245.822 416.137 220.462 408.936 190.512C397.853 144.632 345.306 132.619 349.654 115.609C353.287 101.445 402.016 99.2716 432.678 100.437C475.971 102.122 519.784 104.788 550.132 135.675Z" stroke="#144FA3" stroke-width="2" stroke-miterlimit="10"/>
<path d="M568.968 108.364C593.977 134.678 603.252 177.264 619.614 259.775C636.231 343.142 637.005 399.264 630.887 400.662C625.283 401.963 606.165 380.504 589.998 365.24C559.434 336.212 503.649 341.549 493.173 340.151C440.772 333.15 428.704 313.572 409.006 277.05C401.145 262.479 378.096 225.572 367.446 181.945C351.035 114.796 271.66 98.3666 277.21 74.2099C281.845 54.1172 353.829 51.6842 398.616 54.3448C461.509 57.8941 525.236 62.3483 568.968 108.364Z" stroke="#144FA3" stroke-width="2" stroke-miterlimit="10"/>
<path d="M587.745 81.0701C619.82 115.425 631.293 169.937 653.135 277.613C675.333 386.714 676.958 459.418 670.147 460.767C663.021 462.192 638.012 433.608 616.94 413.25C576.96 374.533 503.422 381.984 490.292 380.385C421.172 371.992 405.736 346.003 380.256 297.901C370.261 279.174 340 230.709 325.912 173.4C304.157 84.9878 197.954 64.1365 204.722 32.8324C210.348 6.82241 305.587 4.22683 364.506 8.26921C446.972 13.8343 530.651 19.9087 587.745 81.0701Z" stroke="#144FA3" stroke-width="2" stroke-miterlimit="10"/>
<path d="M487.385 420.636C401.551 410.882 382.888 378.369 351.484 318.763C339.41 295.847 301.878 235.856 284.346 164.871C257.274 55.1847 124.227 29.9172 132.202 -8.52882C138.83 -40.4994 257.318 -43.2088 330.368 -37.7901C432.44 -30.2039 536.054 -22.52 606.501 53.7867C645.641 96.1884 659.307 162.611 686.633 295.463C714.371 430.303 716.845 519.571 709.374 520.882C700.711 522.4 669.849 486.744 643.86 461.276C594.459 412.876 503.173 422.429 487.385 420.636Z" stroke="#144FA3" stroke-width="2" stroke-miterlimit="10"/>
<path d="M-210.527 681.277C-200.781 643.888 -130.827 661.45 -47.5544 577.237C-17.7158 547.06 2.29029 515.496 41.7827 510.587C45.7676 510.094 85.3304 505.764 113.252 531.178C148.381 563.149 126.94 607.501 167.937 669.356C183.038 692.142 185.55 685.526 196.633 703.494C243.933 780.196 171.792 858.064 213.418 935.958C232.579 971.814 261.064 980.045 258.357 984.727C246.673 1004.81 -236.862 782.028 -210.527 681.277Z" stroke="#144FA3" stroke-width="2" stroke-miterlimit="10"/>
<path d="M52.6114 561.702C55.0045 562.027 81.0909 560.076 98.9854 578.045C121.612 600.733 105.483 631.972 131.407 674.146C140.947 689.676 142.273 685.466 149.063 697.75C178.03 750.171 126.041 802.906 151.499 854.222C163.281 877.978 181.879 883.423 179.113 885.743C166.6 896.32 -152.561 740.06 -127.492 672.065C-118.093 646.565 -66.7808 655.614 -8.06741 600.69C13.2814 580.732 27.7378 558.326 52.6114 561.702Z" stroke="#144FA3" stroke-width="2" stroke-miterlimit="10"/>
<path d="M63.4401 612.822C64.1223 614.54 76.8785 614.502 84.7185 624.911C94.8975 638.415 84.058 656.405 94.8759 678.931C98.8446 687.2 99.007 685.433 101.498 692.006C112.191 720.276 80.2462 747.716 89.586 772.491C93.9554 784.152 102.077 786.141 99.9112 786.764C84.0796 784.515 -67.9341 697.94 -44.4844 662.854C-35.3288 649.144 -2.55561 649.8 31.3925 624.142C44.2949 614.388 52.7413 607.246 63.4401 612.822Z" stroke="#144FA3" stroke-width="2" stroke-miterlimit="10"/>
<path d="M74.2688 663.937C65.8657 688.511 32.784 696.867 20.6666 687.78C2.79922 674.363 18.0407 656.893 38.534 653.642C53.8513 651.23 83.8847 635.814 74.2688 663.937Z" stroke="#144FA3" stroke-width="2" stroke-miterlimit="10"/>
</g>
<path d="M139.197 383H123.167C122.756 383 122.312 382.954 121.833 382.863C121.366 382.761 120.899 382.607 120.432 382.402C119.976 382.197 119.538 381.935 119.116 381.616C118.695 381.285 118.319 380.892 117.988 380.437C117.669 379.969 117.413 379.434 117.219 378.83C117.026 378.215 116.929 377.526 116.929 376.762V364.731C116.929 364.321 116.974 363.882 117.065 363.415C117.168 362.937 117.322 362.469 117.527 362.014C117.732 361.547 118 361.102 118.33 360.681C118.66 360.259 119.054 359.889 119.509 359.57C119.976 359.239 120.512 358.977 121.116 358.784C121.72 358.59 122.403 358.493 123.167 358.493H139.197V362.937H123.167C122.585 362.937 122.141 363.09 121.833 363.398C121.526 363.706 121.372 364.161 121.372 364.765V376.762C121.372 377.332 121.526 377.776 121.833 378.095C122.153 378.403 122.597 378.557 123.167 378.557H139.197V383ZM163.447 383H159.004V370.747C159.004 370.166 158.856 369.727 158.56 369.431C158.263 369.123 157.819 368.969 157.227 368.969H149.211V364.526H157.227C157.648 364.526 158.092 364.577 158.56 364.68C159.027 364.771 159.488 364.919 159.944 365.124C160.411 365.329 160.855 365.597 161.277 365.927C161.698 366.246 162.069 366.639 162.388 367.106C162.707 367.562 162.963 368.092 163.157 368.696C163.35 369.3 163.447 369.983 163.447 370.747V383ZM147.417 383H142.974V356.716H147.417V383ZM172.026 360.732H167.583V356.716H172.026V360.732ZM172.026 383H167.583V364.526H172.026V383ZM194.158 376.762C194.158 377.526 194.061 378.215 193.867 378.83C193.674 379.434 193.417 379.969 193.098 380.437C192.779 380.892 192.409 381.285 191.987 381.616C191.566 381.935 191.121 382.197 190.654 382.402C190.199 382.607 189.731 382.761 189.253 382.863C188.786 382.954 188.341 383 187.92 383H175.889V378.557H187.886C188.49 378.557 188.945 378.403 189.253 378.095C189.561 377.788 189.714 377.343 189.714 376.762C189.657 375.577 189.059 374.985 187.92 374.985H181.033C180.053 374.985 179.221 374.814 178.538 374.472C177.854 374.13 177.296 373.703 176.863 373.19C176.441 372.678 176.134 372.125 175.94 371.533C175.758 370.94 175.667 370.388 175.667 369.875C175.667 368.884 175.843 368.052 176.196 367.38C176.549 366.696 176.994 366.144 177.529 365.722C178.065 365.301 178.646 364.999 179.272 364.816C179.899 364.623 180.486 364.526 181.033 364.526H191.953V368.969H181.067C180.839 368.969 180.657 368.998 180.52 369.055C180.395 369.1 180.298 369.169 180.229 369.26C180.173 369.34 180.138 369.431 180.127 369.533C180.116 369.624 180.11 369.715 180.11 369.807C180.121 369.989 180.155 370.131 180.212 370.234C180.269 370.336 180.338 370.41 180.417 370.456C180.509 370.502 180.605 370.53 180.708 370.542C180.822 370.542 180.93 370.542 181.033 370.542H187.92C189.059 370.542 190.028 370.747 190.825 371.157C191.623 371.567 192.266 372.085 192.756 372.712C193.246 373.327 193.599 373.999 193.816 374.729C194.044 375.458 194.158 376.136 194.158 376.762ZM219.724 383H203.694C203.284 383 202.839 382.954 202.361 382.863C201.894 382.761 201.427 382.607 200.959 382.402C200.504 382.197 200.065 381.935 199.644 381.616C199.222 381.285 198.846 380.892 198.516 380.437C198.197 379.969 197.94 379.434 197.747 378.83C197.553 378.215 197.456 377.526 197.456 376.762V364.731C197.456 364.321 197.502 363.882 197.593 363.415C197.695 362.937 197.849 362.469 198.054 362.014C198.259 361.547 198.527 361.102 198.857 360.681C199.188 360.259 199.581 359.889 200.037 359.57C200.504 359.239 201.039 358.977 201.643 358.784C202.247 358.59 202.931 358.493 203.694 358.493H219.724V362.937H203.694C203.113 362.937 202.668 363.09 202.361 363.398C202.053 363.706 201.899 364.161 201.899 364.765V376.762C201.899 377.332 202.053 377.776 202.361 378.095C202.68 378.403 203.124 378.557 203.694 378.557H219.724V383ZM243.291 376.762C243.291 377.526 243.194 378.215 243 378.83C242.807 379.434 242.55 379.969 242.231 380.437C241.912 380.892 241.542 381.285 241.121 381.616C240.699 381.935 240.255 382.197 239.788 382.402C239.332 382.607 238.865 382.761 238.386 382.863C237.919 382.954 237.475 383 237.053 383H229.038C228.423 383 227.751 382.892 227.021 382.675C226.292 382.459 225.614 382.106 224.988 381.616C224.373 381.114 223.854 380.471 223.433 379.685C223.022 378.887 222.817 377.913 222.817 376.762V370.747C222.817 369.607 223.022 368.645 223.433 367.858C223.854 367.061 224.373 366.417 224.988 365.927C225.614 365.426 226.292 365.067 227.021 364.851C227.751 364.634 228.423 364.526 229.038 364.526H237.053C238.193 364.526 239.161 364.731 239.958 365.141C240.756 365.551 241.4 366.07 241.89 366.696C242.38 367.312 242.733 367.984 242.949 368.713C243.177 369.442 243.291 370.12 243.291 370.747V376.762ZM238.848 370.781C238.848 370.166 238.694 369.71 238.386 369.414C238.079 369.117 237.634 368.969 237.053 368.969H229.072C228.48 368.969 228.03 369.123 227.722 369.431C227.415 369.727 227.261 370.166 227.261 370.747V376.762C227.261 377.343 227.415 377.788 227.722 378.095C228.03 378.403 228.48 378.557 229.072 378.557H237.053C237.657 378.557 238.107 378.403 238.403 378.095C238.7 377.788 238.848 377.343 238.848 376.762V370.781Z" fill="white"/>
<path d="M86.91 410.968C86.95 410.968 86.978 411.004 86.994 411.076C87.018 411.14 87.03 411.28 87.03 411.496C87.03 411.704 87.018 411.84 86.994 411.904C86.978 411.968 86.95 412 86.91 412H85.758C85.686 412.912 85.374 413.628 84.822 414.148C84.27 414.668 83.55 414.928 82.662 414.928H81.186L81.09 413.896H82.674C83.314 413.896 83.822 413.724 84.198 413.38C84.582 413.044 84.778 412.584 84.786 412H83.586C82.762 412 82.166 411.832 81.798 411.496C81.438 411.152 81.258 410.62 81.258 409.9C81.258 409.404 81.354 408.964 81.546 408.58C81.738 408.188 82.006 407.888 82.35 407.68C82.702 407.464 83.098 407.356 83.538 407.356C84.234 407.356 84.782 407.588 85.182 408.052C85.582 408.516 85.782 409.152 85.782 409.96V410.968H86.91ZM82.254 409.84C82.254 410.248 82.354 410.54 82.554 410.716C82.762 410.884 83.126 410.968 83.646 410.968H84.786V410.032C84.786 409.48 84.674 409.064 84.45 408.784C84.226 408.504 83.902 408.364 83.478 408.364C83.11 408.364 82.814 408.5 82.59 408.772C82.366 409.044 82.254 409.4 82.254 409.84ZM90.2303 410.968C90.5743 410.968 90.8423 410.9 91.0343 410.764C91.2343 410.628 91.3343 410.444 91.3343 410.212C91.3343 410.052 91.2943 409.896 91.2143 409.744C91.1423 409.584 91.0183 409.416 90.8423 409.24L88.0223 406.444V405.58L92.4023 403.84L92.7023 404.8L89.1983 406.18L91.5743 408.568C92.3343 409.336 92.8943 409.88 93.2543 410.2C93.6143 410.52 93.8983 410.728 94.1063 410.824C94.3143 410.92 94.5503 410.968 94.8143 410.968C94.8943 410.968 94.9343 411.144 94.9343 411.496C94.9343 411.832 94.8943 412 94.8143 412C94.4703 412 94.1823 411.968 93.9503 411.904C93.7263 411.832 93.4823 411.7 93.2183 411.508C92.9623 411.308 92.6223 410.996 92.1983 410.572C92.1663 410.996 91.9743 411.34 91.6223 411.604C91.2783 411.868 90.8143 412 90.2303 412H86.9062C86.8262 412 86.7862 411.832 86.7862 411.496C86.7862 411.144 86.8262 410.968 86.9062 410.968H90.2303ZM95.7524 410.968C96.1044 410.968 96.3764 410.884 96.5684 410.716C96.7684 410.548 96.8684 410.316 96.8684 410.02V408.136H97.8764V410.02C97.8764 410.652 98.2324 410.968 98.9444 410.968C99.2964 410.968 99.5684 410.884 99.7604 410.716C99.9604 410.548 100.06 410.316 100.06 410.02V408.136H101.056V410.02C101.056 410.324 101.14 410.56 101.308 410.728C101.484 410.888 101.74 410.968 102.076 410.968C102.404 410.968 102.656 410.884 102.832 410.716C103.016 410.548 103.108 410.316 103.108 410.02V408.136H104.104V410.02C104.104 410.652 104.42 410.968 105.052 410.968H105.4C105.488 410.968 105.532 411.144 105.532 411.496C105.532 411.704 105.52 411.84 105.496 411.904C105.472 411.968 105.44 412 105.4 412H105.052C104.284 412 103.788 411.764 103.564 411.292C103.284 411.764 102.788 412 102.076 412C101.268 412 100.748 411.752 100.516 411.256C100.22 411.752 99.6964 412 98.9444 412C98.0964 412 97.5564 411.752 97.3244 411.256C97.0284 411.752 96.5044 412 95.7524 412H94.8164C94.7364 412 94.6964 411.832 94.6964 411.496C94.6964 411.144 94.7364 410.968 94.8164 410.968H95.7524ZM106.85 410.968C107.162 410.968 107.41 410.888 107.594 410.728C107.778 410.568 107.87 410.352 107.87 410.08V408.136H108.866V410.056C108.866 410.352 108.946 410.58 109.106 410.74C109.274 410.892 109.514 410.968 109.826 410.968H110.162C110.242 410.968 110.282 411.14 110.282 411.484C110.282 411.828 110.242 412 110.162 412H109.79C109.054 412 108.574 411.764 108.35 411.292C108.07 411.764 107.57 412 106.85 412H105.41C105.33 412 105.29 411.832 105.29 411.496C105.29 411.144 105.33 410.968 105.41 410.968H106.85ZM107.882 413.512V414.46H104.714V413.512H107.882ZM111.008 410.968C111.608 410.968 112.108 410.92 112.508 410.824C112.908 410.728 113.32 410.56 113.744 410.32L115.568 409.252C115.44 408.82 115.264 408.52 115.04 408.352C114.824 408.184 114.496 408.1 114.056 408.1H111.248L111.38 407.056H114.224C114.704 407.056 115.1 407.136 115.412 407.296C115.724 407.456 115.984 407.72 116.192 408.088C116.4 408.448 116.58 408.948 116.732 409.588L114.212 411.148C113.7 411.468 113.208 411.692 112.736 411.82C112.264 411.94 111.676 412 110.972 412H110.168C110.088 412 110.048 411.832 110.048 411.496C110.048 411.144 110.088 410.968 110.168 410.968H111.008ZM114.608 413.512V414.46H111.44V413.512H114.608ZM112.496 416.104V415.156H113.552V416.104H112.496ZM123.715 410.968C123.996 410.968 124.22 410.908 124.388 410.788C124.564 410.668 124.652 410.512 124.652 410.32C124.652 410.16 124.588 409.896 124.46 409.528C124.332 409.16 123.996 408.232 123.452 406.744C123.428 406.68 123.404 406.62 123.38 406.564C123.356 406.5 123.336 406.444 123.32 406.396L124.244 405.976L125.648 409.96C125.776 410.328 125.92 410.588 126.08 410.74C126.24 410.892 126.46 410.968 126.74 410.968H126.992C127.072 410.968 127.112 411.144 127.112 411.496C127.112 411.712 127.1 411.852 127.076 411.916C127.06 411.972 127.032 412 126.992 412H126.704C126.336 412 126.032 411.94 125.792 411.82C125.552 411.7 125.364 411.508 125.228 411.244C125.076 411.508 124.876 411.7 124.628 411.82C124.388 411.94 124.084 412 123.715 412H120.908L120.812 410.968H123.715ZM128.436 410.968C128.748 410.968 128.996 410.888 129.18 410.728C129.364 410.568 129.456 410.352 129.456 410.08V408.136H130.452V410.056C130.452 410.352 130.532 410.58 130.692 410.74C130.86 410.892 131.1 410.968 131.412 410.968H131.748C131.828 410.968 131.868 411.14 131.868 411.484C131.868 411.828 131.828 412 131.748 412H131.376C130.64 412 130.16 411.764 129.936 411.292C129.656 411.764 129.156 412 128.436 412H126.996C126.916 412 126.876 411.832 126.876 411.496C126.876 411.144 126.916 410.968 126.996 410.968H128.436ZM129.096 406.696V405.7H130.368V406.696H129.096ZM132.03 410.968C132.598 410.968 132.882 410.712 132.882 410.2V409.708C132.882 408.94 133.086 408.336 133.494 407.896C133.902 407.456 134.462 407.236 135.174 407.236C135.886 407.236 136.434 407.444 136.818 407.86C137.202 408.276 137.394 408.876 137.394 409.66V409.996C137.394 410.34 137.462 410.588 137.598 410.74C137.734 410.892 137.942 410.968 138.222 410.968H138.522C138.602 410.968 138.642 411.144 138.642 411.496C138.642 411.832 138.602 412 138.522 412H138.222C137.526 412 137.074 411.744 136.866 411.232C136.706 411.48 136.47 411.672 136.158 411.808C135.854 411.936 135.514 412 135.138 412C134.306 412 133.746 411.752 133.458 411.256C133.322 411.512 133.142 411.7 132.918 411.82C132.694 411.94 132.398 412 132.03 412H131.754C131.674 412 131.634 411.832 131.634 411.496C131.634 411.144 131.674 410.968 131.754 410.968H132.03ZM136.398 409.66C136.398 408.716 135.978 408.244 135.138 408.244C134.714 408.244 134.398 408.364 134.19 408.604C133.982 408.844 133.878 409.212 133.878 409.708C133.878 410.1 133.986 410.408 134.202 410.632C134.426 410.856 134.738 410.968 135.138 410.968C135.978 410.968 136.398 410.532 136.398 409.66ZM139.463 410.968C139.815 410.968 140.087 410.884 140.279 410.716C140.479 410.548 140.579 410.316 140.579 410.02V408.136H141.587V410.02C141.587 410.652 141.943 410.968 142.655 410.968C143.007 410.968 143.279 410.884 143.471 410.716C143.671 410.548 143.771 410.316 143.771 410.02V408.136H144.767V410.02C144.767 410.324 144.851 410.56 145.019 410.728C145.195 410.888 145.451 410.968 145.787 410.968C146.123 410.968 146.379 410.888 146.555 410.728C146.731 410.56 146.819 410.324 146.819 410.02V408.136H147.815V409.996C147.815 410.62 147.631 411.112 147.263 411.472C146.903 411.824 146.411 412 145.787 412C144.979 412 144.459 411.752 144.227 411.256C143.931 411.752 143.407 412 142.655 412C141.807 412 141.267 411.752 141.035 411.256C140.739 411.752 140.215 412 139.463 412H138.527C138.447 412 138.407 411.832 138.407 411.496C138.407 411.144 138.447 410.968 138.527 410.968H139.463ZM144.791 404.104V405.052H143.699V404.104H144.791ZM145.823 405.748V406.696H142.655V405.748H145.823ZM155.453 410.968C155.493 410.968 155.521 411.004 155.537 411.076C155.561 411.14 155.573 411.28 155.573 411.496C155.573 411.704 155.561 411.84 155.537 411.904C155.521 411.968 155.493 412 155.453 412H154.301C154.229 412.912 153.917 413.628 153.365 414.148C152.813 414.668 152.093 414.928 151.205 414.928H149.729L149.633 413.896H151.217C151.857 413.896 152.365 413.724 152.741 413.38C153.125 413.044 153.321 412.584 153.329 412H152.129C151.305 412 150.709 411.832 150.341 411.496C149.981 411.152 149.801 410.62 149.801 409.9C149.801 409.404 149.897 408.964 150.089 408.58C150.281 408.188 150.549 407.888 150.893 407.68C151.245 407.464 151.641 407.356 152.081 407.356C152.777 407.356 153.325 407.588 153.725 408.052C154.125 408.516 154.325 409.152 154.325 409.96V410.968H155.453ZM150.797 409.84C150.797 410.248 150.897 410.54 151.097 410.716C151.305 410.884 151.669 410.968 152.189 410.968H153.329V410.032C153.329 409.48 153.217 409.064 152.993 408.784C152.769 408.504 152.445 408.364 152.021 408.364C151.653 408.364 151.357 408.5 151.133 408.772C150.909 409.044 150.797 409.4 150.797 409.84ZM157.333 410.968C157.085 410.792 156.881 410.556 156.721 410.26C156.569 409.956 156.493 409.648 156.493 409.336C156.493 408.904 156.593 408.516 156.793 408.172C157.001 407.82 157.281 407.548 157.633 407.356C157.985 407.156 158.381 407.056 158.821 407.056C159.229 407.056 159.601 407.152 159.937 407.344C160.273 407.536 160.537 407.8 160.729 408.136C160.929 408.464 161.029 408.832 161.029 409.24C161.029 409.592 160.941 409.92 160.765 410.224C160.597 410.52 160.353 410.768 160.033 410.968H161.809C162.153 410.968 162.417 410.9 162.601 410.764C162.785 410.628 162.877 410.444 162.877 410.212C162.877 410.06 162.837 409.908 162.757 409.756C162.685 409.596 162.549 409.412 162.349 409.204L159.913 406.648L160.633 405.916L163.117 408.568C163.621 409.104 163.873 409.656 163.873 410.224C163.873 410.76 163.689 411.192 163.321 411.52C162.953 411.84 162.449 412 161.809 412H160.453C159.933 412 159.553 411.988 159.313 411.964C159.081 411.94 158.893 411.888 158.749 411.808C158.605 411.88 158.401 411.932 158.137 411.964C157.881 411.988 157.501 412 156.997 412H155.449C155.369 412 155.329 411.832 155.329 411.496C155.329 411.144 155.369 410.968 155.449 410.968H157.333ZM158.701 410.944C159.141 410.76 159.477 410.528 159.709 410.248C159.949 409.968 160.069 409.664 160.069 409.336C160.069 408.96 159.945 408.656 159.697 408.424C159.457 408.184 159.145 408.064 158.761 408.064C158.377 408.064 158.061 408.184 157.813 408.424C157.573 408.656 157.453 408.96 157.453 409.336C157.453 409.68 157.557 409.988 157.765 410.26C157.981 410.532 158.293 410.76 158.701 410.944ZM177.043 410.968C177.123 410.968 177.163 411.144 177.163 411.496C177.163 411.832 177.123 412 177.043 412H175.795C175.915 412.12 175.975 412.308 175.975 412.564C175.975 413.028 175.839 413.436 175.567 413.788C175.303 414.148 174.923 414.428 174.427 414.628C173.939 414.828 173.371 414.928 172.723 414.928H171.799C170.791 414.928 170.015 414.636 169.471 414.052C168.927 413.468 168.655 412.652 168.655 411.604V409.336H169.651V411.58C169.651 412.34 169.835 412.916 170.203 413.308C170.571 413.7 171.111 413.896 171.823 413.896H172.723C173.451 413.896 174.007 413.78 174.391 413.548C174.783 413.316 174.979 412.996 174.979 412.588C174.979 412.372 174.923 412.212 174.811 412.108C174.707 412.012 174.539 411.964 174.307 411.964H172.075L172.183 410.968H177.043ZM177.983 410.968C178.335 410.968 178.607 410.884 178.799 410.716C178.999 410.548 179.099 410.316 179.099 410.02V408.136H180.107V410.02C180.107 410.652 180.463 410.968 181.175 410.968C181.527 410.968 181.799 410.884 181.991 410.716C182.191 410.548 182.291 410.316 182.291 410.02V408.136H183.287V410.02C183.287 410.324 183.371 410.56 183.539 410.728C183.715 410.888 183.971 410.968 184.307 410.968C184.635 410.968 184.887 410.884 185.063 410.716C185.247 410.548 185.339 410.316 185.339 410.02V408.136H186.335V410.02C186.335 410.652 186.651 410.968 187.283 410.968H187.631C187.719 410.968 187.763 411.144 187.763 411.496C187.763 411.704 187.751 411.84 187.727 411.904C187.703 411.968 187.671 412 187.631 412H187.283C186.515 412 186.019 411.764 185.795 411.292C185.515 411.764 185.019 412 184.307 412C183.499 412 182.979 411.752 182.747 411.256C182.451 411.752 181.927 412 181.175 412C180.327 412 179.787 411.752 179.555 411.256C179.259 411.752 178.735 412 177.983 412H177.047C176.967 412 176.927 411.832 176.927 411.496C176.927 411.144 176.967 410.968 177.047 410.968H177.983ZM183.311 404.104V405.052H182.219V404.104H183.311ZM184.343 405.748V406.696H181.175V405.748H184.343ZM190.857 410.092C190.857 410.684 190.677 411.152 190.317 411.496C189.957 411.832 189.481 412 188.889 412H187.641C187.561 412 187.521 411.832 187.521 411.496C187.521 411.144 187.561 410.968 187.641 410.968H188.889C189.177 410.968 189.409 410.892 189.585 410.74C189.769 410.58 189.861 410.36 189.861 410.08V408.136H190.857V410.092ZM190.185 413.512V414.46H187.017V413.512H190.185ZM195.065 410.968C195.105 410.968 195.133 411.004 195.149 411.076C195.173 411.14 195.185 411.28 195.185 411.496C195.185 411.704 195.173 411.84 195.149 411.904C195.133 411.968 195.105 412 195.065 412H194.753C194.145 412 193.681 411.82 193.361 411.46C193.049 411.092 192.893 410.572 192.893 409.9V404.236H193.889V409.852C193.889 410.596 194.193 410.968 194.801 410.968H195.065ZM195.346 410.968C195.914 410.968 196.198 410.712 196.198 410.2V409.708C196.198 408.94 196.402 408.336 196.81 407.896C197.218 407.456 197.778 407.236 198.49 407.236C199.202 407.236 199.75 407.444 200.134 407.86C200.518 408.276 200.71 408.876 200.71 409.66C200.71 410.404 200.51 410.98 200.11 411.388C199.71 411.796 199.158 412 198.454 412C197.622 412 197.062 411.752 196.774 411.256C196.638 411.512 196.458 411.7 196.234 411.82C196.01 411.94 195.714 412 195.346 412H195.07C194.99 412 194.95 411.832 194.95 411.496C194.95 411.144 194.99 410.968 195.07 410.968H195.346ZM199.714 409.66C199.714 408.716 199.294 408.244 198.454 408.244C198.03 408.244 197.714 408.364 197.506 408.604C197.298 408.844 197.194 409.212 197.194 409.708C197.194 410.1 197.302 410.408 197.518 410.632C197.742 410.856 198.054 410.968 198.454 410.968C199.294 410.968 199.714 410.532 199.714 409.66ZM204.351 410.044C204.351 410.34 204.435 410.568 204.603 410.728C204.779 410.888 205.031 410.968 205.359 410.968H205.515C205.595 410.968 205.635 411.144 205.635 411.496C205.635 411.832 205.595 412 205.515 412H205.359C205.143 412 204.943 411.964 204.759 411.892C204.575 411.812 204.439 411.712 204.351 411.592V411.736C204.343 412.376 204.207 412.936 203.943 413.416C203.679 413.904 203.311 414.276 202.839 414.532C202.367 414.796 201.823 414.928 201.207 414.928H200.367L200.271 413.896H201.183C201.863 413.896 202.395 413.696 202.779 413.296C203.163 412.904 203.355 412.356 203.355 411.652V408.136H204.351V410.044ZM206.448 410.968C206.8 410.968 207.072 410.884 207.264 410.716C207.464 410.548 207.564 410.316 207.564 410.02V408.136H208.572V410.02C208.572 410.652 208.928 410.968 209.64 410.968C209.992 410.968 210.264 410.884 210.456 410.716C210.656 410.548 210.756 410.316 210.756 410.02V408.136H211.752V410.02C211.752 410.324 211.836 410.56 212.004 410.728C212.18 410.888 212.436 410.968 212.772 410.968C213.108 410.968 213.364 410.888 213.54 410.728C213.716 410.56 213.804 410.324 213.804 410.02V408.136H214.8V409.996C214.8 410.62 214.616 411.112 214.248 411.472C213.888 411.824 213.396 412 212.772 412C211.964 412 211.444 411.752 211.212 411.256C210.916 411.752 210.392 412 209.64 412C208.792 412 208.252 411.752 208.02 411.256C207.724 411.752 207.2 412 206.448 412H205.512C205.432 412 205.392 411.832 205.392 411.496C205.392 411.144 205.432 410.968 205.512 410.968H206.448ZM218.925 413.896C219.605 413.896 220.137 413.696 220.521 413.296C220.905 412.904 221.097 412.356 221.097 411.652V408.136H222.093V410.044C222.093 410.34 222.177 410.568 222.345 410.728C222.521 410.888 222.773 410.968 223.101 410.968H223.257C223.337 410.968 223.377 411.144 223.377 411.496C223.377 411.832 223.337 412 223.257 412H223.101C222.885 412 222.685 411.964 222.501 411.892C222.317 411.812 222.181 411.712 222.093 411.592V411.736C222.085 412.376 221.949 412.936 221.685 413.416C221.421 413.904 221.053 414.276 220.581 414.532C220.109 414.796 219.565 414.928 218.949 414.928H218.613L218.517 413.896H218.925ZM223.626 410.968C223.914 410.968 224.146 410.888 224.322 410.728C224.498 410.568 224.586 410.352 224.586 410.08V404.236H225.594V410.092C225.594 410.684 225.414 411.152 225.054 411.496C224.694 411.832 224.218 412 223.626 412H223.254C223.174 412 223.134 411.832 223.134 411.496C223.134 411.144 223.174 410.968 223.254 410.968H223.626ZM229.358 410.044C229.358 410.34 229.442 410.568 229.61 410.728C229.786 410.888 230.038 410.968 230.366 410.968H230.522C230.602 410.968 230.642 411.144 230.642 411.496C230.642 411.832 230.602 412 230.522 412H230.366C230.15 412 229.95 411.964 229.766 411.892C229.582 411.812 229.446 411.712 229.358 411.592V411.736C229.35 412.376 229.214 412.936 228.95 413.416C228.686 413.904 228.318 414.276 227.846 414.532C227.374 414.796 226.83 414.928 226.214 414.928H225.374L225.278 413.896H226.19C226.87 413.896 227.402 413.696 227.786 413.296C228.17 412.904 228.362 412.356 228.362 411.652V408.136H229.358V410.044ZM232.788 410.968C233.1 410.968 233.348 410.888 233.532 410.728C233.716 410.568 233.808 410.352 233.808 410.08V408.136H234.804V410.056C234.804 410.352 234.884 410.58 235.044 410.74C235.212 410.892 235.452 410.968 235.764 410.968H236.1C236.18 410.968 236.22 411.14 236.22 411.484C236.22 411.828 236.18 412 236.1 412H235.728C234.992 412 234.512 411.764 234.288 411.292C234.008 411.764 233.508 412 232.788 412H230.52C230.44 412 230.4 411.832 230.4 411.496C230.4 411.144 230.44 410.968 230.52 410.968H232.788ZM234.972 405.7V406.648H231.804V405.7H234.972ZM237.538 410.968C237.85 410.968 238.098 410.888 238.282 410.728C238.466 410.568 238.558 410.352 238.558 410.08V408.136H239.554V410.056C239.554 410.352 239.634 410.58 239.794 410.74C239.962 410.892 240.202 410.968 240.514 410.968H240.85C240.93 410.968 240.97 411.14 240.97 411.484C240.97 411.828 240.93 412 240.85 412H240.478C239.742 412 239.262 411.764 239.038 411.292C238.758 411.764 238.258 412 237.538 412H236.098C236.018 412 235.978 411.832 235.978 411.496C235.978 411.144 236.018 410.968 236.098 410.968H237.538ZM238.198 406.696V405.7H239.47V406.696H238.198ZM244.179 410.968C244.523 410.968 244.791 410.9 244.983 410.764C245.183 410.628 245.283 410.444 245.283 410.212C245.283 410.052 245.243 409.896 245.163 409.744C245.091 409.584 244.967 409.416 244.791 409.24L241.971 406.444V405.58L246.351 403.84L246.651 404.8L243.147 406.18L245.547 408.592C246.035 409.08 246.279 409.624 246.279 410.224C246.279 410.752 246.095 411.18 245.727 411.508C245.359 411.836 244.843 412 244.179 412H240.855C240.775 412 240.735 411.832 240.735 411.496C240.735 411.144 240.775 410.968 240.855 410.968H244.179ZM255.821 411.616C255.821 412.296 255.693 412.884 255.437 413.38C255.181 413.876 254.817 414.256 254.345 414.52C253.881 414.792 253.333 414.928 252.701 414.928H251.225L251.129 413.896H252.713C253.353 413.896 253.861 413.724 254.237 413.38C254.621 413.044 254.817 412.584 254.825 412H253.625C252.801 412 252.205 411.832 251.837 411.496C251.477 411.152 251.297 410.62 251.297 409.9C251.297 409.404 251.393 408.964 251.585 408.58C251.777 408.188 252.045 407.888 252.389 407.68C252.741 407.464 253.137 407.356 253.577 407.356C254.273 407.356 254.821 407.588 255.221 408.052C255.621 408.516 255.821 409.152 255.821 409.96V411.616ZM252.293 409.84C252.293 410.248 252.393 410.54 252.593 410.716C252.801 410.884 253.165 410.968 253.685 410.968H254.825V410.032C254.825 409.48 254.713 409.064 254.489 408.784C254.265 408.504 253.941 408.364 253.517 408.364C253.149 408.364 252.853 408.5 252.629 408.772C252.405 409.044 252.293 409.4 252.293 409.84ZM259.929 413.896C260.609 413.896 261.141 413.696 261.525 413.296C261.909 412.904 262.101 412.356 262.101 411.652V408.136H263.097V410.044C263.097 410.34 263.181 410.568 263.349 410.728C263.525 410.888 263.777 410.968 264.105 410.968H264.261C264.341 410.968 264.381 411.144 264.381 411.496C264.381 411.832 264.341 412 264.261 412H264.105C263.889 412 263.689 411.964 263.505 411.892C263.321 411.812 263.185 411.712 263.097 411.592V411.736C263.089 412.376 262.953 412.936 262.689 413.416C262.425 413.904 262.057 414.276 261.585 414.532C261.113 414.796 260.569 414.928 259.953 414.928H259.617L259.521 413.896H259.929ZM261.873 406.696V405.7H263.145V406.696H261.873ZM267.15 410.968C267.438 410.968 267.67 410.892 267.846 410.74C268.022 410.58 268.11 410.36 268.11 410.08V408.136H269.118V410.092C269.118 410.684 268.938 411.152 268.578 411.496C268.218 411.832 267.742 412 267.15 412H264.258C264.178 412 264.138 411.832 264.138 411.496C264.138 411.144 264.178 410.968 264.258 410.968H267.15ZM267.546 413.512V414.46H264.378V413.512H267.546ZM269.597 413.896C270.277 413.896 270.809 413.696 271.193 413.296C271.577 412.904 271.769 412.356 271.769 411.652V408.136H272.765V410.044C272.765 410.34 272.849 410.568 273.017 410.728C273.193 410.888 273.445 410.968 273.773 410.968H273.929C274.009 410.968 274.049 411.144 274.049 411.496C274.049 411.832 274.009 412 273.929 412H273.773C273.557 412 273.357 411.964 273.173 411.892C272.989 411.812 272.853 411.712 272.765 411.592V411.736C272.757 412.376 272.621 412.936 272.357 413.416C272.093 413.904 271.725 414.276 271.253 414.532C270.781 414.796 270.237 414.928 269.621 414.928H269.285L269.189 413.896H269.597ZM276.818 410.968C277.106 410.968 277.338 410.892 277.514 410.74C277.69 410.58 277.778 410.36 277.778 410.08V408.136H278.786V410.092C278.786 410.684 278.606 411.152 278.246 411.496C277.886 411.832 277.41 412 276.818 412H273.926C273.846 412 273.806 411.832 273.806 411.496C273.806 411.144 273.846 410.968 273.926 410.968H276.818ZM277.214 413.512V414.46H274.046V413.512H277.214ZM275.102 416.104V415.156H276.158V416.104H275.102Z" fill="white"/>
</g>
<defs>
<linearGradient id="paint0_linear_216_176" x1="521.5" y1="-59" x2="-289.5" y2="1025.5" gradientUnits="userSpaceOnUse">
<stop stop-color="#144FA3"/>
<stop offset="1" stop-color="#34A6F6"/>
</linearGradient>
<clipPath id="clip0_216_176">
<rect width="360" height="767" rx="15" fill="white"/>
</clipPath>
</defs>
</svg>
