<svg width="22" height="22" viewBox="0 0 22 22" fill="none" xmlns="http://www.w3.org/2000/svg">
<g clip-path="url(#clip0_657_1733)">
<path d="M16.9585 5.04165H14.2085C13.9552 5.04165 13.7501 5.24666 13.7501 5.5V8.25C13.7501 8.50334 13.9552 8.70835 14.2085 8.70835H15.1251V9.5037C15.1251 9.98396 14.8691 10.4356 14.4573 10.6827L11.4585 12.4822V4.58335H13.2918C13.4583 4.58335 13.6118 4.49294 13.6928 4.34702C13.7734 4.20157 13.7689 4.02342 13.6803 3.88197L11.3887 0.215274C11.305 0.0815118 11.1527 4.30367e-05 11.0004 6.79211e-08C10.8479 -8.58696e-05 10.6954 0.0813829 10.6117 0.215274L8.32002 3.88193C8.23137 4.02338 8.2269 4.20153 8.30747 4.34698C8.38846 4.4929 8.54199 4.5833 8.7085 4.5833H10.5418V15.2628L8.04072 13.8731C7.60433 13.6309 7.33354 13.1704 7.33354 12.6713V11.8702C8.37828 11.6573 9.16689 10.7316 9.16689 9.62496C9.16689 8.36142 8.13877 7.3333 6.87523 7.3333C5.6117 7.3333 4.5835 8.36146 4.5835 9.625C4.5835 10.7316 5.3721 11.6573 6.41684 11.8703V12.6713C6.41684 13.5034 6.86845 14.271 7.59582 14.6743L10.5419 16.3112V17.4631C9.49714 17.676 8.70854 18.6017 8.70854 19.7083C8.7085 20.9719 9.73661 22 11.0001 22C12.2637 22 13.2918 20.9719 13.2918 19.7083C13.2918 18.6017 12.5032 17.676 11.4585 17.4631V13.5512L14.9291 11.4687C15.6153 11.0573 16.0418 10.304 16.0418 9.50374V8.70839H16.9585C17.2118 8.70839 17.4168 8.50339 17.4168 8.25004V5.50004C17.4168 5.24666 17.2118 5.04165 16.9585 5.04165ZM6.87515 11C6.11692 11 5.50015 10.3832 5.50015 9.625C5.50015 8.86677 6.11692 8.25 6.87515 8.25C7.63337 8.25 8.25015 8.86677 8.25015 9.625C8.25015 10.3832 7.63337 11 6.87515 11ZM12.3751 19.7083C12.3751 20.4666 11.7584 21.0833 11.0001 21.0833C10.2419 21.0833 9.62515 20.4666 9.62515 19.7083C9.62515 18.9501 10.2419 18.3333 11.0001 18.3333C11.7584 18.3333 12.3751 18.9501 12.3751 19.7083ZM9.53565 3.66665L11.0001 1.32309L12.4647 3.6667H9.53565V3.66665ZM16.5001 7.79165H14.6668V5.9583H16.5001V7.79165Z" fill="#144FA3"/>
</g>
<defs>
<clipPath id="clip0_657_1733">
<rect width="22" height="22" fill="white"/>
</clipPath>
</defs>
</svg>
