<svg width="22" height="22" viewBox="0 0 22 22" fill="none" xmlns="http://www.w3.org/2000/svg">
<path d="M13.7684 2.75909C12.9984 2.17243 12.0451 1.83325 11.0001 1.83325C8.47008 1.83325 6.41675 3.88659 6.41675 6.41659C6.41675 8.94658 8.47008 10.9999 11.0001 10.9999C13.5301 10.9999 15.5834 8.94658 15.5834 6.41659" stroke="#061962" stroke-linecap="round" stroke-linejoin="round"/>
<path d="M17.6091 14.4284L14.364 17.6734C14.2357 17.8017 14.1165 18.04 14.089 18.2142L13.9149 19.4517C13.8507 19.9008 14.1624 20.2125 14.6115 20.1483L15.849 19.9742C16.0232 19.9467 16.2707 19.8275 16.3899 19.6992L19.6349 16.4542C20.194 15.895 20.4599 15.2442 19.6349 14.4192C18.819 13.6033 18.1682 13.8692 17.6091 14.4284Z" stroke="#061962" stroke-miterlimit="10" stroke-linecap="round" stroke-linejoin="round"/>
<path d="M17.1416 14.8958C17.4166 15.8858 18.1866 16.6557 19.1766 16.9307" stroke="#061962" stroke-miterlimit="10" stroke-linecap="round" stroke-linejoin="round"/>
<path d="M3.12573 20.1667C3.12573 16.6192 6.65492 13.75 10.9999 13.75C11.9533 13.75 12.8699 13.8875 13.7224 14.1442" stroke="#061962" stroke-linecap="round" stroke-linejoin="round"/>
</svg>
