<svg width="33" height="33" viewBox="0 0 33 33" fill="none" xmlns="http://www.w3.org/2000/svg">
<path d="M5.54994 17.4756L13.8222 9.2033C14.1731 8.85243 14.1731 8.28359 13.8222 7.93272C13.4714 7.58185 12.9025 7.58185 12.5516 7.93272L4.27939 16.205L4.27942 14.626C4.27942 14.1298 3.87715 13.7275 3.38099 13.7276C2.88473 13.7275 2.4825 14.1298 2.48253 14.626L2.4825 18.374C2.48285 18.6127 2.57747 18.8411 2.74564 19.0093C2.91647 19.1801 3.14695 19.2724 3.38096 19.2725L7.12902 19.2724C7.62521 19.2725 8.02748 18.8703 8.02748 18.374C8.02748 17.8778 7.62521 17.4756 7.12905 17.4756L5.54994 17.4756Z" fill="#144FA3"/>
<path d="M15.8562 9.86292C15.36 9.86289 14.9577 10.2651 14.9578 10.7613L14.9577 19.6317L13.8412 18.5151C13.4903 18.1643 12.9215 18.1643 12.5706 18.5151C12.2198 18.866 12.2198 19.4348 12.5706 19.7857L15.2209 22.436C15.2209 22.436 15.2209 22.436 15.221 22.4361C15.5682 22.7832 16.139 22.7885 16.4915 22.436L19.1418 19.7857C19.4926 19.4348 19.4926 18.866 19.1418 18.5151C18.7909 18.1643 18.2221 18.1643 17.8712 18.5151L16.7547 19.6317L16.7547 10.7614C16.7547 10.2652 16.3524 9.86289 15.8562 9.86292Z" fill="#144FA3"/>
<path d="M29.6186 13.7277C29.1224 13.7277 28.7201 14.1299 28.7201 14.6261L28.7201 16.2051L20.4479 7.93283C20.097 7.58195 19.5282 7.58195 19.1773 7.93283C18.8264 8.2837 18.8264 8.85254 19.1773 9.20341L27.4496 17.4757L25.8705 17.4757C25.3744 17.4757 24.9722 17.8779 24.9721 18.3741C24.9721 18.8703 25.3744 19.2726 25.8706 19.2726L29.6186 19.2726C29.8593 19.2721 30.091 19.1722 30.2539 19.0094C30.4236 18.8397 30.517 18.6086 30.517 18.3742L30.5171 14.6261C30.5171 14.1299 30.1148 13.7276 29.6186 13.7277Z" fill="#144FA3"/>
</svg>
