<svg width="23" height="23" viewBox="0 0 23 23" fill="none" xmlns="http://www.w3.org/2000/svg">
<path d="M22.2635 13.9996H7.71835C7.31172 13.9996 6.98242 13.6699 6.98242 13.2633C6.98242 12.8566 7.31212 12.5273 7.71835 12.5273H22.2635C22.6702 12.5273 22.9999 12.8566 22.9999 13.2633C22.9999 13.6699 22.6698 13.9996 22.2635 13.9996Z" fill="#144FA3"/>
<path d="M5.06361 13.9996H3.82138C3.41474 13.9996 3.08545 13.6699 3.08545 13.2633C3.08545 12.8566 3.41514 12.5273 3.82138 12.5273H5.06321C5.46985 12.5273 5.79914 12.8566 5.79914 13.2633C5.79914 13.6699 5.46985 13.9996 5.06361 13.9996Z" fill="#144FA3"/>
<path d="M11.249 10.7338H0.73593C0.329693 10.7338 0 10.4041 0 9.99781C0 9.59157 0.329693 9.26187 0.73593 9.26187H11.249C13.3966 9.26187 15.144 7.51491 15.144 5.36728C15.144 3.21965 13.3966 1.47228 11.249 1.47228C9.10185 1.47228 7.35491 3.21965 7.35491 5.36728C7.35491 5.77392 7.02522 6.10322 6.61898 6.10322C6.21275 6.10322 5.88305 5.77352 5.88305 5.36728C5.88305 2.40756 8.29017 0 11.249 0C14.2087 0 16.6162 2.40756 16.6162 5.36688C16.6162 8.3262 14.2087 10.7338 11.249 10.7338V10.7338Z" fill="#144FA3"/>
<path d="M18.965 10.7336H17.7231C17.3165 10.7336 16.9868 10.4039 16.9868 9.99766C16.9868 9.59142 17.3165 9.26172 17.7231 9.26172H18.965C19.3716 9.26172 19.7013 9.59142 19.7013 9.99766C19.7013 10.4039 19.3716 10.7336 18.965 10.7336Z" fill="#144FA3"/>
<path d="M11.8688 20.1339H10.6266C10.2199 20.1339 9.89062 19.8042 9.89062 19.3976C9.89062 18.9909 10.2203 18.6616 10.6266 18.6616H11.8688C12.275 18.6616 12.6047 18.9909 12.6047 19.3976C12.6047 19.8042 12.275 20.1339 11.8688 20.1339V20.1339Z" fill="#144FA3"/>
<path d="M17.5045 23.0002C15.5172 23.0002 13.9002 21.3839 13.9002 19.3978C13.9002 18.9911 14.2295 18.6618 14.6361 18.6618C15.0428 18.6618 15.3725 18.9911 15.3725 19.3978C15.3725 20.5727 16.3288 21.5283 17.5049 21.5283C18.679 21.5283 19.6342 20.5731 19.6342 19.3978C19.6342 18.2233 18.679 17.2673 17.5049 17.2673H1.16415C0.757517 17.2673 0.428223 16.938 0.428223 16.5314C0.428223 16.1247 0.757916 15.7954 1.16415 15.7954H17.5045C19.4898 15.7954 21.1056 17.4116 21.1056 19.3978C21.1056 21.3839 19.4902 23.0002 17.5045 23.0002V23.0002Z" fill="#144FA3"/>
</svg>
