<svg width="23" height="23" viewBox="0 0 23 23" fill="none" xmlns="http://www.w3.org/2000/svg">
<path d="M3.06744 4.44689H14.7662C15.2624 4.44689 15.6647 4.04466 15.6647 3.54845C15.6647 3.05225 15.2624 2.65002 14.7662 2.65002H3.06749L4.18402 1.53353C4.53491 1.18264 4.53491 0.613754 4.18402 0.262959C3.83314 -0.0879709 3.26429 -0.0879709 2.91345 0.262914L0.263152 2.91317C0.0946054 3.08221 0 3.31064 0 3.54845C0 3.79004 0.097705 4.01829 0.263152 4.18378L2.91345 6.83404C3.26429 7.18492 3.83314 7.18497 4.18402 6.83408C4.53491 6.4832 4.53491 5.91431 4.18402 5.56351L3.06744 4.44689Z" fill="#144FA3"/>
<path d="M15.7382 6.35183C15.3873 6.0009 14.8185 6.0009 14.4676 6.35178L8.19531 12.624V11.045C8.19531 10.5488 7.79308 10.1466 7.29687 10.1466C6.80067 10.1466 6.39844 10.5488 6.39844 11.045V14.7931C6.39844 14.7931 6.39844 14.7931 6.39844 14.7932C6.39848 15.2841 6.79838 15.6915 7.29687 15.6915H11.0449C11.5411 15.6915 11.9434 15.2893 11.9434 14.7931C11.9434 14.2969 11.5411 13.8947 11.0449 13.8947H9.46593L15.7382 7.62244C16.0891 7.27156 16.0891 6.70267 15.7382 6.35183Z" fill="#144FA3"/>
<path d="M22.7366 18.8161C22.3857 18.4652 21.8169 18.4652 21.466 18.8161L20.3495 19.9327V8.23389C20.3495 7.73768 19.9473 7.33545 19.451 7.33545C18.9548 7.33545 18.5526 7.73768 18.5526 8.23389V19.9327L17.4361 18.8161C17.0852 18.4652 16.5164 18.4653 16.1655 18.8161C15.8146 19.167 15.8146 19.7359 16.1655 20.0867L18.8158 22.737C18.9863 22.9069 19.2208 23.0001 19.451 23.0001C19.6911 23.0001 19.9206 22.9028 20.0863 22.737L22.7366 20.0867C23.0875 19.7359 23.0875 19.167 22.7366 18.8161Z" fill="#144FA3"/>
</svg>
