<svg width="64" height="42" viewBox="0 0 64 42" fill="none" xmlns="http://www.w3.org/2000/svg">
<g clip-path="url(#clip0_2119_3761)">
<path d="M32 41.5C49.6731 41.5 64 38.366 64 34.5C64 30.634 49.6731 27.5 32 27.5C14.3269 27.5 0 30.634 0 34.5C0 38.366 14.3269 41.5 32 41.5Z" fill="#F5F5F5"/>
<path d="M44.4293 3.02183L44.4514 3.05738L44.479 3.08876L54.5 14.449V23H9.5V14.45L19.521 3.08773L19.5486 3.05647L19.5706 3.02107C19.9963 2.3366 20.5668 2 21.093 2H42.907C43.4331 2 44.0036 2.33649 44.4293 3.02183Z" fill="white" stroke="#D9D9D9"/>
<path d="M42.113 17.431C42.113 16.7281 42.3313 16.1037 42.6628 15.6657C42.9941 15.228 43.4149 15.0004 43.8402 15H54.5V32.637C54.5 33.5983 54.2005 34.4554 53.7386 35.0616C53.2768 35.6674 52.6752 36 52.05 36H11.95C11.3249 36 10.7232 35.6673 10.2615 35.0612C9.79946 34.4549 9.5 33.5978 9.5 32.637V15H20.16C20.5855 15 21.0062 15.2271 21.3374 15.6641C21.6687 16.1014 21.887 16.7251 21.887 17.428V17.45C21.887 19.2034 23.0035 20.851 24.624 20.851H39.376C40.1804 20.851 40.8753 20.423 41.353 19.8009C41.8307 19.1791 42.113 18.3416 42.113 17.438V17.431Z" fill="#FAFAFA" stroke="#D9D9D9"/>
</g>
<defs>
<clipPath id="clip0_2119_3761">
<rect width="64" height="41" fill="white" transform="translate(0 0.5)"/>
</clipPath>
</defs>
</svg>
