<svg width="220" height="404" viewBox="0 0 220 404" fill="none" xmlns="http://www.w3.org/2000/svg">
<g clip-path="url(#clip0_1305_2158)">
<g opacity="0.15">
<path d="M199.009 194.072C184.93 188.307 179.583 174.173 188.785 166.105C207.717 149.502 285.657 157.704 289.324 168.958C292.936 180.045 228.387 206.106 199.009 194.072Z" stroke="#34A6F6" stroke-width="2" stroke-miterlimit="10"/>
<path d="M233.894 231.001C266.053 242.018 320.051 163.576 297.762 145.057C284.058 133.669 250.884 135.092 223.83 138.835C198.433 142.347 162.144 156.711 153.191 180.565C148.45 193.229 151.296 211.272 161.336 217.59C169.106 222.479 179.597 220.28 181.911 221.093C192.943 216.617 194.562 214.878 203.351 213.828C214.84 212.455 225.05 227.971 233.894 231.001Z" stroke="#34A6F6" stroke-width="2" stroke-miterlimit="10"/>
<path d="M266.524 269.582C303.873 263.75 344.46 149.176 303.945 122.808C278.142 106.015 233.158 113.43 201.804 122.308C173.002 130.463 125.043 157.677 115.34 196.678C109.7 219.34 116.553 251.219 136.191 260.441C151.844 267.789 172.014 261.47 175.565 260.984C196.555 249.94 198.253 244.321 213.882 240.538C234.576 235.536 250.915 272.031 266.524 269.582Z" stroke="#34A6F6" stroke-width="2" stroke-miterlimit="10"/>
<path d="M296.788 307.906C338.026 297.156 366.504 134.612 307.762 100.307C269.85 78.1684 213.044 91.4487 177.412 105.529C145.178 118.263 85.751 158.334 75.1246 212.538C68.7139 245.227 79.412 290.874 108.677 303.038C132.193 312.815 162.225 302.781 166.847 300.621C199.156 285.515 199.565 273.511 222.058 266.996C251.937 258.318 275.19 313.525 296.788 307.906Z" stroke="#34A6F6" stroke-width="2" stroke-miterlimit="10"/>
<path d="M325.232 344.488C370.9 328.978 386.652 118.469 309.759 76.0589C259.687 48.6884 191.082 67.6874 151.204 86.9997C115.5 104.286 44.68 157.211 33.0754 226.655C25.9422 269.342 40.4369 328.772 79.3336 343.898C110.726 356.096 150.382 341.789 156.302 338.526C197.949 315.571 199.026 300.908 228.377 291.707C267.447 279.353 297.895 353.769 325.232 344.488Z" stroke="#34A6F6" stroke-width="2" stroke-miterlimit="10"/>
<path d="M48.7118 384.273C87.9663 398.886 137.224 380.327 144.479 375.941C195.352 345.188 197.233 327.929 233.431 315.955C281.7 299.988 319.523 393.804 352.374 380.607C402.834 360.335 405.666 101.59 310.454 51.3478C248.328 18.5652 167.791 43.4395 123.69 68.0107C84.5241 89.8291 2.36158 155.608 -10.2484 240.305C-18.087 292.987 0.176984 366.207 48.7118 384.273Z" stroke="#34A6F6" stroke-width="2" stroke-miterlimit="10"/>
<path d="M473.484 410.933C458.021 411.06 439.478 437.284 453.346 441.663C461.355 444.196 482.56 440.19 490.889 433.062C502.62 423.03 484.124 410.843 473.484 410.933Z" stroke="#34A6F6" stroke-width="2" stroke-miterlimit="10"/>
<path d="M431.462 437.99C432.975 441.51 440.061 443.073 446.526 447.358C459.64 456.056 461.522 460.189 470.836 465.434C474.469 467.484 479.356 470.177 484.128 468.943C491.435 467.054 493.258 458.876 502.531 444.472C514.555 425.757 519.108 420.918 515.673 411C514.872 408.694 513.836 401.225 508.046 396.67C500.026 390.371 490.627 395.237 478.876 391.068C464.763 386.069 457.766 377.171 451.642 381.103C447.327 383.873 447.167 391.458 443.936 404.665C441.475 414.726 439.928 421.328 436.936 426.713C433.347 433.125 429.779 434.078 431.462 437.99Z" stroke="#34A6F6" stroke-width="2" stroke-miterlimit="10"/>
<path d="M407.827 430.655C408.089 436.894 418.109 439.913 426.367 448.928C443.302 467.42 435.456 480.634 449.031 494.144C454.791 499.88 463.829 505.435 472.888 504.359C485.743 502.829 490.061 489.842 509.852 463.511C535.726 429.086 546.748 422.344 544.332 403.998C543.838 400.259 543.357 385.902 533.245 377.261C519.759 365.737 503.595 376.221 482.481 367.56C458.891 357.895 450.074 337.233 442.119 341.509C436.595 344.478 438.711 356.436 434.465 379.757C431.459 396.333 429.601 406.021 423.593 413.956C416.01 423.964 407.544 423.88 407.827 430.655Z" stroke="#34A6F6" stroke-width="2" stroke-miterlimit="10"/>
<path d="M384.168 423.4C383.146 432.342 396.12 436.837 406.184 450.581C426.906 478.875 409.04 500.99 427.202 522.938C434.976 532.329 448.308 540.731 461.624 539.854C480.079 538.641 486.898 520.945 517.176 482.63C556.983 432.568 574.125 423.754 573.001 397.076C572.779 391.874 572.881 370.666 558.455 357.922C539.499 341.182 516.535 357.305 486.101 344.125C453.008 329.795 442.402 297.379 432.594 301.985C425.863 305.17 430.174 321.487 424.99 354.923C421.412 378.014 419.254 390.741 410.243 401.272C398.628 414.842 385.262 413.769 384.168 423.4Z" stroke="#34A6F6" stroke-width="2" stroke-miterlimit="10"/>
<path d="M360.454 416.165C358.161 427.799 374.053 433.788 385.947 452.251C410.41 490.362 382.488 521.292 405.322 551.748C415.083 564.778 432.744 576.029 450.309 575.369C474.377 574.463 483.589 551.998 524.432 501.766C578.045 435.981 601.377 425.117 601.584 390.171C601.625 383.506 602.3 355.466 583.576 338.603C559.126 316.668 529.408 338.42 489.632 320.707C447.03 301.731 434.635 257.531 423.014 262.477C415.073 265.869 421.582 286.558 415.461 330.105C411.3 359.715 408.856 375.465 396.843 388.605C381.186 405.721 362.922 403.655 360.454 416.165Z" stroke="#34A6F6" stroke-width="2" stroke-miterlimit="10"/>
<path d="M336.696 408.934C340.537 393.537 363.692 396.603 383.387 375.941C398.407 360.188 401.137 341.422 405.881 305.29C412.925 251.636 404.228 226.572 413.379 222.976C426.831 217.687 441.012 273.674 493.128 297.292C542.226 319.541 578.76 292.113 608.663 319.287C631.715 340.239 630.434 375.111 630.134 383.273C628.546 426.476 599.062 439.4 531.64 520.908C480.229 583.058 468.634 610.285 438.94 610.888C417.128 611.331 395.128 597.224 383.387 580.562C355.894 541.57 393.929 501.809 365.665 453.924C351.968 430.719 333.121 423.257 336.696 408.934Z" stroke="#34A6F6" stroke-width="2" stroke-miterlimit="10"/>
<path d="M533.191 161.123C529.155 163.123 520.683 159.27 519.933 153.268C519.084 146.46 528.671 140.828 532.884 142.577C537.867 144.65 538.545 158.477 533.191 161.123Z" stroke="#34A6F6" stroke-width="2" stroke-miterlimit="10"/>
<path d="M544.56 124.948C551.438 131.236 554.444 142.777 557.882 162.559C561.29 182.175 560.755 196.218 557.76 197.238C556.127 197.788 551.502 193.486 547.535 190.333C540.109 184.448 527.397 185.101 524.139 184.464C512.21 182.132 508.707 177.799 503.721 169.501C501.413 165.669 496.032 157.171 493.663 147.173C490.051 132.033 473.859 127.367 475.832 121.299C477.492 116.233 493.534 115.003 503.935 114.86C518.843 114.653 533.927 115.237 544.56 124.948Z" stroke="#34A6F6" stroke-width="2" stroke-miterlimit="10"/>
<path d="M556.482 108.042C567.786 119.279 572.234 138.138 579.084 173.407C586.043 208.846 585.999 233.153 582.571 234.06C579.997 234.753 571.665 225.992 564.583 219.73C551.233 207.876 527.335 209.825 522.411 209.066C499.951 205.673 494.417 197.545 485.712 182.182C482.086 175.783 472.138 160.187 467.605 141.767C460.629 113.55 427.553 106.162 430.29 95.7011C432.577 86.9898 463.25 85.6534 482.55 86.3699C509.801 87.4063 537.379 89.046 556.482 108.042Z" stroke="#34A6F6" stroke-width="2" stroke-miterlimit="10"/>
<path d="M568.338 91.2454C584.08 107.428 589.919 133.619 600.218 184.364C610.677 235.636 611.165 270.152 607.313 271.012C603.786 271.811 591.752 258.614 581.575 249.226C562.337 231.374 527.223 234.656 520.628 233.797C487.645 229.491 480.048 217.45 467.649 194.989C462.701 186.027 448.193 163.329 441.489 136.499C431.159 95.2012 381.196 85.0968 384.689 70.2402C387.607 57.883 432.917 56.3867 461.109 58.023C500.698 60.2058 540.811 62.9452 568.338 91.2454Z" stroke="#34A6F6" stroke-width="2" stroke-miterlimit="10"/>
<path d="M580.158 74.4592C600.347 95.5878 607.569 129.114 621.317 195.335C635.291 262.433 636.313 307.147 632.026 307.976C627.541 308.853 611.798 291.274 598.534 278.753C573.369 254.942 527.08 259.524 518.815 258.541C475.307 253.379 465.591 237.396 449.552 207.812C443.261 196.295 424.213 166.488 415.345 131.243C401.651 76.8687 334.802 64.0449 339.062 44.7926C342.603 28.7962 402.551 27.1999 439.638 29.686C491.547 33.1086 544.219 36.8444 580.158 74.4592Z" stroke="#34A6F6" stroke-width="2" stroke-miterlimit="10"/>
<path d="M516.985 283.295C462.956 277.297 451.209 257.301 431.442 220.643C423.842 206.549 400.217 169.654 389.181 125.998C372.141 58.5395 288.393 42.9997 293.414 19.355C297.585 -0.307178 372.168 -1.9735 418.15 1.35908C482.4 6.02469 547.621 10.7503 591.963 57.6797C616.601 83.7572 625.203 124.608 642.403 206.313C659.863 289.241 661.42 344.142 656.717 344.948C651.264 345.881 631.838 323.953 615.479 308.29C584.384 278.523 526.923 284.398 516.985 283.295Z" stroke="#34A6F6" stroke-width="2" stroke-miterlimit="10"/>
<path d="M77.6807 443.593C83.8152 420.598 127.848 431.399 180.265 379.607C199.047 361.048 211.64 341.636 236.498 338.616C239.007 338.313 263.91 335.65 281.485 351.28C303.597 370.942 290.101 398.219 315.907 436.261C325.412 450.274 326.994 446.205 333.97 457.256C363.743 504.429 318.334 552.318 344.535 600.224C356.596 622.275 374.526 627.338 372.822 630.217C365.468 642.571 61.1037 505.555 77.6807 443.593Z" stroke="#34A6F6" stroke-width="2" stroke-miterlimit="10"/>
<path d="M243.314 370.052C244.821 370.252 261.241 369.053 272.505 380.104C286.747 394.057 276.595 413.269 292.913 439.207C298.918 448.758 299.753 446.169 304.026 453.724C322.26 485.963 289.535 518.396 305.56 549.955C312.976 564.565 324.683 567.914 322.941 569.341C315.065 575.846 114.168 479.744 129.947 437.927C135.864 422.244 168.162 427.809 205.12 394.03C218.558 381.756 227.658 367.976 243.314 370.052Z" stroke="#34A6F6" stroke-width="2" stroke-miterlimit="10"/>
<path d="M250.131 401.492C250.56 402.548 258.59 402.525 263.524 408.927C269.932 417.232 263.109 428.296 269.918 442.15C272.416 447.235 272.518 446.149 274.086 450.191C280.817 467.577 260.709 484.453 266.588 499.69C269.339 506.862 274.451 508.085 273.088 508.468C263.122 507.085 167.436 453.84 182.197 432.262C187.96 423.83 208.589 424.234 229.958 408.454C238.08 402.455 243.396 398.063 250.131 401.492Z" stroke="#34A6F6" stroke-width="2" stroke-miterlimit="10"/>
<path d="M256.947 432.928C251.657 448.042 230.834 453.18 223.207 447.592C211.96 439.34 221.554 428.596 234.453 426.596C244.095 425.113 263 415.632 256.947 432.928Z" stroke="#34A6F6" stroke-width="2" stroke-miterlimit="10"/>
</g>
</g>
<defs>
<clipPath id="clip0_1305_2158">
<rect width="220" height="404" fill="white"/>
</clipPath>
</defs>
</svg>
