<svg width="40" height="40" viewBox="0 0 40 40" fill="none" xmlns="http://www.w3.org/2000/svg">
<path d="M20 1.25C9.65 1.25 1.25 9.65 1.25 20C1.25 30.35 9.65 38.75 20 38.75C30.35 38.75 38.75 30.35 38.75 20C38.75 9.65 30.35 1.25 20 1.25ZM20 31.25C18.625 31.25 17.5 30.125 17.5 28.75C17.5 27.375 18.625 26.25 20 26.25C21.375 26.25 22.5 27.375 22.5 28.75C22.5 30.125 21.375 31.25 20 31.25ZM22.8625 11.8625L22.025 21.8875C21.9375 22.9375 21.0625 23.75 20 23.75C18.9375 23.75 18.0625 22.9375 17.975 21.8875L17.1375 11.8625C17 10.1875 18.3125 8.75 20 8.75C21.6 8.75 22.875 10.05 22.875 11.625C22.875 11.7 22.875 11.7875 22.8625 11.8625Z" fill="#D82148"/>
</svg>
