<svg width="22" height="22" viewBox="0 0 22 22" fill="none" xmlns="http://www.w3.org/2000/svg">
<path d="M1.8335 20.1665H20.1668" stroke="#061962" stroke-linecap="round" stroke-linejoin="round"/>
<path d="M16.0967 9.1665C17.7833 9.1665 19.1492 10.3948 19.1492 11.9165V20.1665" stroke="#061962" stroke-linecap="round" stroke-linejoin="round"/>
<path d="M2.85107 20.1665V11.9165C2.85107 10.3948 4.21691 9.1665 5.90357 9.1665H12.1919" stroke="#061962" stroke-linecap="round" stroke-linejoin="round"/>
<path d="M5.09668 9.16683V6.57266C5.09668 5.47266 6.08668 4.5835 7.31501 4.5835H14.6942C15.9133 4.5835 16.9033 5.47266 16.9033 6.57266V9.16683" stroke="#061962" stroke-linecap="round" stroke-linejoin="round"/>
<path d="M18.7643 12.8335H18.3518C17.6735 12.8335 17.1143 13.3835 17.1143 14.071V14.3552C17.1143 15.0335 16.5643 15.5927 15.8768 15.5927C15.1985 15.5927 14.6393 15.0427 14.6393 14.3552V14.071C14.6393 13.3927 14.0893 12.8335 13.4018 12.8335C12.7235 12.8335 12.1643 13.3835 12.1643 14.071V14.3552C12.1643 15.0335 11.6143 15.5927 10.9268 15.5927C10.2485 15.5927 9.68931 15.0427 9.68931 14.3552V14.071C9.71681 13.3835 9.16681 12.8335 8.48848 12.8335C7.81014 12.8335 7.25098 13.3835 7.25098 14.071" stroke="#061962" stroke-linecap="round" stroke-linejoin="round"/>
<path d="M3.23584 12.8149L3.57501 12.8241C4.25334 12.8333 4.79417 13.3833 4.79417 14.0616V14.3641C4.79417 15.0424 5.34417 15.6016 6.03167 15.6016" stroke="#061962" stroke-linecap="round" stroke-linejoin="round"/>
<path d="M7.3335 4.58333V2.75" stroke="#061962" stroke-linecap="round" stroke-linejoin="round"/>
<path d="M14.6665 4.58333V2.75" stroke="#061962" stroke-linecap="round" stroke-linejoin="round"/>
<path d="M11 4.5835V1.8335" stroke="#061962" stroke-linecap="round" stroke-linejoin="round"/>
</svg>
