<svg width="37" height="37" viewBox="0 0 37 37" fill="none" xmlns="http://www.w3.org/2000/svg">
<path d="M3.0835 13.1041C3.0835 8.24788 5.8585 6.16663 10.021 6.16663H14.1835C13.9831 6.75246 13.8752 7.39996 13.8752 8.09371V14.1062C13.8752 15.6017 14.3685 16.8658 15.2472 17.7446C16.126 18.6233 17.3902 19.1167 18.8856 19.1167V21.2596C18.8856 22.0459 19.7797 22.5236 20.4427 22.092L24.8981 19.1167H28.9064C29.6002 19.1167 30.2477 19.0086 30.8335 18.8082V21.4292C30.8335 26.2854 28.0585 28.3667 23.896 28.3667H10.021C5.8585 28.3667 3.0835 26.2854 3.0835 21.4292V19.1167" stroke="#144FA3" stroke-width="1.2" stroke-miterlimit="10" stroke-linecap="round" stroke-linejoin="round"/>
<path d="M33.9167 14.1063C33.9167 16.4034 32.745 18.13 30.8333 18.8083C30.2475 19.0087 29.6 19.1167 28.9063 19.1167H24.8979L20.4425 22.0921C19.7796 22.5237 18.8854 22.0459 18.8854 21.2597V19.1167C17.39 19.1167 16.1258 18.6234 15.2471 17.7446C14.3683 16.8659 13.875 15.6017 13.875 14.1063V8.09379C13.875 7.40004 13.9829 6.75254 14.1833 6.16671C14.8617 4.25504 16.5883 3.08337 18.8854 3.08337H28.9063C31.9125 3.08337 33.9167 5.08754 33.9167 8.09379" stroke="#144FA3" stroke-width="1.2" stroke-miterlimit="10" stroke-linecap="round" stroke-linejoin="round"/>
<path d="M11.4082 33.9166H22.5082" stroke="#144FA3" stroke-width="1.2" stroke-miterlimit="10" stroke-linecap="round" stroke-linejoin="round"/>
<path d="M16.9585 28.3667V33.9167" stroke="#144FA3" stroke-width="1.2" stroke-miterlimit="10" stroke-linecap="round" stroke-linejoin="round"/>
<path d="M28.5139 11.1771H28.5278" stroke="#144FA3" stroke-width="1.2" stroke-linecap="round" stroke-linejoin="round"/>
<path d="M24.1975 11.1771H24.2114" stroke="#144FA3" stroke-width="1.2" stroke-linecap="round" stroke-linejoin="round"/>
<path d="M19.8806 11.1771H19.8945" stroke="#144FA3" stroke-width="1.2" stroke-linecap="round" stroke-linejoin="round"/>
</svg>
