<svg width="12" height="12" viewBox="0 0 12 12" fill="none" xmlns="http://www.w3.org/2000/svg">
<path d="M3.52796 9C3.39376 9 3.25956 8.95057 3.15362 8.84466C2.94879 8.63989 2.94879 8.30097 3.15362 8.09621L8.09771 3.15357C8.30253 2.94881 8.64155 2.94881 8.84638 3.15357C9.05121 3.35834 9.05121 3.69726 8.84638 3.90203L3.90229 8.84466C3.79635 8.95057 3.66215 9 3.52796 9Z" fill="white"/>
<path d="M8.47204 9C8.33785 9 8.20365 8.95057 8.09771 8.84466L3.15362 3.90203C2.94879 3.69726 2.94879 3.35834 3.15362 3.15357C3.35845 2.94881 3.69747 2.94881 3.90229 3.15357L8.84638 8.09621C9.05121 8.30097 9.05121 8.63989 8.84638 8.84466C8.74044 8.95057 8.60624 9 8.47204 9Z" fill="white"/>
</svg>
